<?xml version="1.0" encoding="UTF-8"?>
<svg version="1.1" xmlns="http://www.w3.org/2000/svg" width="512" height="512">
<path d="M0 0 C6.79665891 6.72702102 9.17519659 14.77397833 10.625 24 C15.575 24.33 20.525 24.66 25.625 25 C25.7075 23.72125 25.79 22.4425 25.875 21.125 C26.86481053 12.50144527 30.11018415 4.86170148 36.625 -1 C41.90763424 -4.52175616 47.6702914 -5.57168407 53.921875 -4.66796875 C60.34327143 -2.95190591 64.69145175 0.71373832 68.625 6 C72.46219421 13.29732309 73.7641721 20.10858556 73.6875 28.3125 C73.67847656 29.56675781 73.66945313 30.82101562 73.66015625 32.11328125 C73.64275391 33.54220703 73.64275391 33.54220703 73.625 35 C74.43582031 35.20753906 75.24664062 35.41507812 76.08203125 35.62890625 C90.42685735 39.6200744 104.79951809 48.60023993 112.75 61.625 C113.36875 62.73875 113.9875 63.8525 114.625 65 C115.285 65.33 115.945 65.66 116.625 66 C116.89441406 65.45601563 117.16382813 64.91203125 117.44140625 64.3515625 C118.28707922 62.67138057 119.1511725 61.00041881 120.02734375 59.3359375 C122.99836251 53.60557561 125.43756736 48.11224405 127.08203125 41.86328125 C127.625 40 127.625 40 128.625 39 C130.58644175 39.09530516 132.54477823 39.25462129 134.5 39.4375 C149.10740251 40.56686174 165.5204102 41.70152993 179.625 37 C180.285 37.33 180.945 37.66 181.625 38 C179.48014708 53.55018366 169.22470197 65.19996971 157.625 75 C154.09145135 77.64228415 150.50129861 79.90033825 146.625 82 C145.965 82.39445312 145.305 82.78890625 144.625 83.1953125 C137.51325992 87.1956663 128.76682544 89.30210855 120.625 89 C120.49544922 89.92619141 120.49544922 89.92619141 120.36328125 90.87109375 C118.16836616 104.10099477 110.86403842 113.21037154 100.1875 121 C78.72068081 136.07305919 53.67377355 143.03954243 27.625 144 C26.92777832 144.02723145 26.23055664 144.05446289 25.51220703 144.08251953 C6.37841978 144.73132998 -13.12100584 142.99628411 -31.375 137 C-32.00776855 136.79536133 -32.64053711 136.59072266 -33.29248047 136.37988281 C-52.76254072 129.97128734 -71.96286345 119.62450172 -82.39453125 101.19921875 C-84.39860383 97.07211038 -84.65240363 93.53092594 -84.375 89 C-85.02984375 88.97421875 -85.6846875 88.9484375 -86.359375 88.921875 C-104.38880141 87.80140217 -119.24200515 79.06433936 -131.375 66 C-138.95945253 57.25276459 -144.13591236 49.48538929 -145.375 38 C-144.45203125 38.144375 -143.5290625 38.28875 -142.578125 38.4375 C-126.49135505 40.72652655 -110.53629083 40.37126104 -94.375 39 C-93.7871875 40.36125 -93.7871875 40.36125 -93.1875 41.75 C-92.91164062 42.38550781 -92.63578125 43.02101563 -92.3515625 43.67578125 C-91.63093361 45.39087801 -90.94301029 47.11980312 -90.2734375 48.85546875 C-87.72593796 55.33926595 -84.91322127 60.69761089 -80.375 66 C-79.70855469 65.09378906 -79.04210937 64.18757813 -78.35546875 63.25390625 C-67.7253035 49.08295085 -55.42348443 38.00808074 -37.375 35 C-37.53613281 34.41476562 -37.69726562 33.82953125 -37.86328125 33.2265625 C-40.02593456 23.81654429 -37.38231423 13.59208754 -32.91796875 5.265625 C-29.61953662 0.42235757 -25.1111096 -2.68078374 -19.5625 -4.5 C-12.53698514 -5.81124541 -5.60507699 -4.47348598 0 0 Z M41.625 11 C37.07327727 16.9049376 35.92753392 21.71397039 36.625 29 C38.15553432 33.13244266 39.65319467 35.96042429 43.625 38 C48.21950035 39.03746782 50.50249189 39.40240857 54.9375 37.8125 C58.12867333 35.66031333 59.90483992 33.83313474 61.3125 30.25 C62.37935397 22.56865143 61.58624522 17.0188328 56.875 10.625 C51.63661503 6.84172197 46.75937486 7.46298621 41.625 11 Z M-20.375 10 C-24.74425095 14.56785326 -26.15532666 17.14424656 -26.625 23.25 C-26.27452191 28.50717137 -25.24533522 33.18811275 -21.375 36.9375 C-17.28435269 39.11065638 -13.9563183 39.38824731 -9.375 39 C-5.67109979 36.97333762 -3.72136989 35.51955484 -1.375 32 C0.34385021 25.56400447 -0.41277464 19.92445072 -3.375 14 C-6.06927533 10.40763289 -7.53122436 9.22601133 -11.875 8.0625 C-15.53780692 7.99709273 -17.26209129 8.11587104 -20.375 10 Z " fill="#F64F1C" transform="translate(238.375,226)"/>
<path d="M0 0 C29.91476965 -1.17815017 55.79465762 13.98834785 77.109375 33.4140625 C79.9656871 36.21851418 82.46866654 38.98862887 84.90625 42.16015625 C84.90625 42.82015625 84.90625 43.48015625 84.90625 44.16015625 C85.89625 44.49015625 86.88625 44.82015625 87.90625 45.16015625 C89.34181005 47.18435599 90.5738076 49.13014474 91.78125 51.28515625 C92.30634155 52.2121936 92.30634155 52.2121936 92.84204102 53.15795898 C101.77973073 69.54132252 105.52631598 90.21565351 100.28125 108.41015625 C95.13505472 122.18115965 86.1965252 132.67323621 72.90625 139.16015625 C66.21247472 141.93736089 59.95065324 144.31863524 52.65625 144.22265625 C51.76421875 144.21363281 50.8721875 144.20460937 49.953125 144.1953125 C48.93992187 144.17791016 48.93992187 144.17791016 47.90625 144.16015625 C47.57625 144.82015625 47.24625 145.48015625 46.90625 146.16015625 C21.46816042 143.51677268 -1.89971211 136.92551171 -21.09375 119.16015625 C-22.25777344 118.11601562 -22.25777344 118.11601562 -23.4453125 117.05078125 C-33.5836977 107.50467284 -43.16829156 94.01077807 -46.09375 80.16015625 C-46.34253906 79.03867188 -46.59132813 77.9171875 -46.84765625 76.76171875 C-48.6850579 67.91873463 -50.06998112 59.2251595 -49.09375 50.16015625 C-48.43375 49.17015625 -47.77375 48.18015625 -47.09375 47.16015625 C-42.60566169 46.37652178 -39.36658336 48.27470781 -35.53125 50.34765625 C-27.5554112 54.49891505 -19.43813168 58.31971978 -11.28125 62.09765625 C-10.652258 62.39014252 -10.02326599 62.68262878 -9.37521362 62.98397827 C-2.34539326 66.34529176 -2.34539326 66.34529176 4.90625 69.16015625 C4.46796875 68.13664062 4.0296875 67.113125 3.578125 66.05859375 C-2.89245925 50.85793898 -8.99282625 35.5118043 -15.09375 20.16015625 C-15.75375 20.16015625 -16.41375 20.16015625 -17.09375 20.16015625 C-17.42375 18.84015625 -17.75375 17.52015625 -18.09375 16.16015625 C-17.43375 16.16015625 -16.77375 16.16015625 -16.09375 16.16015625 C-16.609375 15.10828125 -17.125 14.05640625 -17.65625 12.97265625 C-18.6462958 10.59366271 -19.10337432 9.0189996 -19.28125 6.41015625 C-17.66573246 3.34917564 -15.54063671 2.72749452 -12.33203125 1.71875 C-8.21578625 0.69148467 -4.2034933 0.32153587 0 0 Z " fill="#F64F1C" transform="translate(346.09375,109.83984375)"/>
<path d="M0 0 C1.1446875 0.928125 1.1446875 0.928125 2.3125 1.875 C0.05163056 9.96775316 -2.81050355 17.78112424 -5.8125 25.625 C-6.05127869 26.25185699 -6.29005737 26.87871399 -6.53607178 27.52456665 C-17.81538824 57.13077647 -17.81538824 57.13077647 -21.6875 64.875 C-19.66704558 64.27316251 -17.66638961 63.60193904 -15.6875 62.875 C-15.3575 62.215 -15.0275 61.555 -14.6875 60.875 C-12.69680565 60.18104003 -10.69422782 59.52113305 -8.6875 58.875 C-5.96467654 57.70340855 -3.29646126 56.42018171 -0.62109375 55.14453125 C0.93134881 54.41669496 2.48409236 53.68950037 4.03710938 52.96289062 C6.46493719 51.82346885 8.89055595 50.68008135 11.3112793 49.52563477 C13.66152299 48.40698059 16.0192846 47.30573691 18.37890625 46.20703125 C19.09985977 45.8581636 19.82081329 45.50929596 20.56361389 45.14985657 C23.63618468 43.73331462 25.83582281 42.83774658 29.24584961 43.10424805 C31.3125 43.875 31.3125 43.875 32.3125 44.875 C34.42201094 67.24964881 25.77304361 88.96494623 12.33984375 106.44140625 C1.19308885 119.60235916 -14.44877212 130.0988082 -30.6875 135.875 C-31.6775 135.875 -32.6675 135.875 -33.6875 135.875 C-34.0175 136.865 -34.3475 137.855 -34.6875 138.875 C-34.6875 138.215 -34.6875 137.555 -34.6875 136.875 C-35.35394531 137.07996094 -36.02039063 137.28492188 -36.70703125 137.49609375 C-43.39531384 139.4511302 -49.73392867 140.52993556 -56.6875 140.875 C-57.74130859 140.95427734 -57.74130859 140.95427734 -58.81640625 141.03515625 C-76.11080425 141.78994022 -92.02345946 135.49715152 -104.7265625 124.03515625 C-115.11363124 113.2133864 -118.11794821 98.85535308 -118.05102539 84.39575195 C-117.56870672 62.15978935 -107.41373213 44.81079031 -93.1328125 28.23828125 C-91.6875 26.875 -91.6875 26.875 -89.6875 26.875 C-89.6875 26.215 -89.6875 25.555 -89.6875 24.875 C-71.20852745 6.58247448 -25.22257588 -16.65753255 0 0 Z " fill="#F74F1C" transform="translate(182.6875,114.125)"/>
<path d="M0 0 C10.38414968 8.41958082 16.69500792 21.0392395 18.74609375 34.06640625 C19.46147344 42.33179313 19.30706951 50.32825547 14 57 C12 58.1875 12 58.1875 10 58 C6.73198854 55.78618579 5.49888333 52.98783829 3.9375 49.5 C-3.25838975 34.64890839 -17.76904583 25.31772579 -32 18 C-25.21636783 10.86462394 -10.41157009 -3.19310795 0 0 Z " fill="#F2511E" transform="translate(406,315)"/>
<path d="M0 0 C0 0.66 0 1.32 0 2 C0.52851562 2.23847656 1.05703125 2.47695313 1.6015625 2.72265625 C5.30453522 4.69476062 8.64171881 7.19626008 12.046875 9.63476562 C15.56476487 12.11628183 19.10457737 14.16997517 23 16 C23 16.66 23 17.32 23 18 C21.99582031 18.51046875 20.99164063 19.0209375 19.95703125 19.546875 C4.84515235 27.47703635 -8.97496781 37.81639743 -14.6875 54.625 C-15.120625 55.73875 -15.55375 56.8525 -16 58 C-17.921875 58.7890625 -17.921875 58.7890625 -20 59 C-23.18224935 57.44768324 -24.6408252 55.87655754 -25.984375 52.59765625 C-30.31755629 38.02426822 -26.72826705 26.30387492 -19.7578125 13.1796875 C-15.34995803 5.20636852 -10.37956125 -3.03792036 0 0 Z " fill="#F2511F" transform="translate(115,315)"/>
<path d="M0 0 C5.02211753 1.85878034 7.39510889 5.68223608 9.55078125 10.3515625 C13.1327953 19.11883076 13.23476698 27.85069101 10.30078125 36.8515625 C8.48828125 40.4140625 8.48828125 40.4140625 6.30078125 42.8515625 C3.8828125 43.35546875 3.8828125 43.35546875 1.30078125 42.8515625 C-0.54296875 40.4375 -0.54296875 40.4375 -2.19921875 37.2265625 C-7.12940112 28.19319609 -12.66427651 22.24621751 -21.69921875 17.1640625 C-22.35921875 16.7309375 -23.01921875 16.2978125 -23.69921875 15.8515625 C-23.69921875 14.8615625 -23.69921875 13.8715625 -23.69921875 12.8515625 C-23.18875 12.5834375 -22.67828125 12.3153125 -22.15234375 12.0390625 C-16.27675415 8.87207804 -10.8940832 5.25523373 -5.49609375 1.328125 C-2.69921875 -0.1484375 -2.69921875 -0.1484375 0 0 Z " fill="#F1511F" transform="translate(365.69921875,344.1484375)"/>
<path d="M0 0 C0.99 0 1.98 0 3 0 C3 0.66 3 1.32 3 2 C3.86238281 2.07476562 4.72476563 2.14953125 5.61328125 2.2265625 C9.69308874 3.15828324 11.90501147 4.80392534 15.1875 7.375 C16.21230469 8.16648437 17.23710937 8.95796875 18.29296875 9.7734375 C20.32539254 11.44512806 22.20329271 13.08598192 24 15 C21.71671617 18.2346521 19.42513507 20.48087882 16.1875 22.6875 C8.60858374 28.18150993 4.26800486 36.85735477 0 45 C-1.65 44.67 -3.3 44.34 -5 44 C-5 43.34 -5 42.68 -5 42 C-5.66 42 -6.32 42 -7 42 C-11.14905725 31.89794756 -12.11629499 23.1767006 -8.1484375 12.765625 C-5.94901193 8.15219575 -3.21965224 3.96264891 0 0 Z " fill="#F15220" transform="translate(144,343)"/>
<path d="M0 0 C1.12758089 3.38274266 0.81750262 4.76778223 0.0625 8.1875 C-0.13214844 9.08855469 -0.32679687 9.98960937 -0.52734375 10.91796875 C-0.68332031 11.60503906 -0.83929688 12.29210937 -1 13 C-1.66 13 -2.32 13 -3 13 C-4.39315424 23.62280106 -4.09675083 34.31126627 -4 45 C-4.33 45 -4.66 45 -5 45 C-8.37260774 31.29021245 -7.049877 12.41667525 0 0 Z " fill="#C76340" transform="translate(71,170)"/>
<path d="M0 0 C-2.39387157 0.67449966 -4.78969221 1.33976641 -7.1875 2 C-7.86103516 2.19078125 -8.53457031 2.3815625 -9.22851562 2.578125 C-12.90555156 3.5825836 -16.1850182 4.23704741 -20 4 C-20.10957031 4.67546875 -20.21914063 5.3509375 -20.33203125 6.046875 C-20.49058594 6.93890625 -20.64914062 7.8309375 -20.8125 8.75 C-20.96332031 9.63171875 -21.11414063 10.5134375 -21.26953125 11.421875 C-22.05414248 14.1910911 -23.14595359 15.8259401 -25 18 C-23.88762625 7.321212 -23.88762625 7.321212 -21 3 C-18.12363759 1.41887659 -15.22027298 0.94130057 -12 0.4375 C-11.18015625 0.27443359 -10.3603125 0.11136719 -9.515625 -0.05664062 C-3.52968014 -1.17656005 -3.52968014 -1.17656005 0 0 Z " fill="#D36037" transform="translate(379,311)"/>
<path d="M0 0 C0.59296875 0.21269531 1.1859375 0.42539063 1.796875 0.64453125 C-4.27752325 7.34912644 -4.27752325 7.34912644 -8.140625 8.58203125 C-9.1615625 8.61296875 -9.1615625 8.61296875 -10.203125 8.64453125 C-10.203125 7.98453125 -10.203125 7.32453125 -10.203125 6.64453125 C-9.543125 6.64453125 -8.883125 6.64453125 -8.203125 6.64453125 C-8.203125 5.98453125 -8.203125 5.32453125 -8.203125 4.64453125 C-2.96161877 -0.47784984 -2.96161877 -0.47784984 0 0 Z " fill="#E55727" transform="translate(101.203125,134.35546875)"/>
<path d="M0 0 C3.12131935 0.31213194 4.58293282 0.52623475 6.6953125 2.92578125 C7.16710937 3.71339844 7.63890625 4.50101563 8.125 5.3125 C9.9680519 8.32613891 11.83726045 11.20379531 14 14 C10.14406926 12.41438362 7.66783709 9.93490046 4.75 7 C3.85796875 6.113125 2.9659375 5.22625 2.046875 4.3125 C0 2 0 2 0 0 Z " fill="#D55C33" transform="translate(316,218)"/>
<path d="M0 0 C5.59282842 1.36410449 8.91193811 4.15383526 13 8 C12.01 8.495 12.01 8.495 11 9 C9.35050343 7.88037801 7.70550162 6.75413155 6.0625 5.625 C5.14597656 4.99851562 4.22945313 4.37203125 3.28515625 3.7265625 C1 2 1 2 0 0 Z " fill="#D85E33" transform="translate(116,299)"/>
<path d="M0 0 C3.8665284 3.222107 4.88059018 6.14922412 6 11 C1.9957657 7.50912907 0.37328935 5.35048061 0 0 Z " fill="#E35B2A" transform="translate(99,277)"/>
<path d="M0 0 C-0.33 1.98 -0.66 3.96 -1 6 C-1.33 4.68 -1.66 3.36 -2 2 C-4.97 2 -7.94 2 -11 2 C-11 1.67 -11 1.34 -11 1 C-3.375 -1.125 -3.375 -1.125 0 0 Z " fill="#C4603D" transform="translate(420,264)"/>
<path d="M0 0 C0.99 0.66 1.98 1.32 3 2 C1.73308493 2.67408308 0.46129251 3.33900497 -0.8125 4 C-1.52019531 4.37125 -2.22789062 4.7425 -2.95703125 5.125 C-5 6 -5 6 -8 6 C-7.67 4.68 -7.34 3.36 -7 2 C-6.67 2.66 -6.34 3.32 -6 4 C-4.02 3.34 -2.04 2.68 0 2 C0 1.34 0 0.68 0 0 Z " fill="#D35D35" transform="translate(167,175)"/>
<path d="M0 0 C0.33 1.32 0.66 2.64 1 4 C-4.75 7.875 -4.75 7.875 -7 9 C-5.44499019 5.18315774 -2.96404505 2.80804268 0 0 Z " fill="#DD5C32" transform="translate(90,143)"/>
<path d="M0 0 C0.66 0.33 1.32 0.66 2 1 C1.34 2.32 0.68 3.64 0 5 C-1.98 5 -3.96 5 -6 5 C-2.25 1.125 -2.25 1.125 0 0 Z " fill="#DD592C" transform="translate(185,266)"/>
<path d="M0 0 C0.66 0.99 1.32 1.98 2 3 C0.35 3.33 -1.3 3.66 -3 4 C-2.01 2.68 -1.02 1.36 0 0 Z " fill="#E75827" transform="translate(438,234)"/>
<path d="M0 0 C0.33 0.99 0.66 1.98 1 3 C0.01 3.66 -0.98 4.32 -2 5 C-1.34 3.35 -0.68 1.7 0 0 Z " fill="#947F74" transform="translate(486,468)"/>
<path d="M0 0 C0 0.99 0 1.98 0 3 C-0.66 2.34 -1.32 1.68 -2 1 C-1.34 0.67 -0.68 0.34 0 0 Z " fill="#938178" transform="translate(486,484)"/>
<path d="M0 0 C0.99 0.33 1.98 0.66 3 1 C2.01 1 1.02 1 0 1 C0 0.67 0 0.34 0 0 Z " fill="#937F75" transform="translate(435,503)"/>
<path d="M0 0 C0.33 0.66 0.66 1.32 1 2 C0.01 1.67 -0.98 1.34 -2 1 C-1.34 0.67 -0.68 0.34 0 0 Z " fill="#A9715C" transform="translate(486,388)"/>
<path d="M0 0 C0.99 0.495 0.99 0.495 2 1 C1.01 1.495 1.01 1.495 0 2 C0 1.34 0 0.68 0 0 Z " fill="#927D72" transform="translate(436,495)"/>
<path d="M0 0 C0.66 0.66 1.32 1.32 2 2 C1.34 2 0.68 2 0 2 C0 1.34 0 0.68 0 0 Z " fill="#938179" transform="translate(483,487)"/>
<path d="M0 0 C0.99 0.495 0.99 0.495 2 1 C1.01 1.495 1.01 1.495 0 2 C0 1.34 0 0.68 0 0 Z " fill="#947C70" transform="translate(436,487)"/>
<path d="M0 0 C0.99 0.495 0.99 0.495 2 1 C1.01 1.495 1.01 1.495 0 2 C0 1.34 0 0.68 0 0 Z " fill="#957B6E" transform="translate(436,479)"/>
<path d="M0 0 C0.99 0.495 0.99 0.495 2 1 C1.01 1.495 1.01 1.495 0 2 C0 1.34 0 0.68 0 0 Z " fill="#977A6C" transform="translate(436,471)"/>
<path d="M0 0 C0.99 0.495 0.99 0.495 2 1 C1.01 1.495 1.01 1.495 0 2 C0 1.34 0 0.68 0 0 Z " fill="#AB715B" transform="translate(486,381)"/>
<path d="M0 0 C0.99 0.495 0.99 0.495 2 1 C1.01 1.495 1.01 1.495 0 2 C0 1.34 0 0.68 0 0 Z " fill="#E75B29" transform="translate(414,284)"/>
<path d="" fill="#BE6C4E" transform="translate(0,0)"/>
<path d="M0 0 C3 1 3 1 3 1 Z " fill="#F15926" transform="translate(388,256)"/>
<path d="M0 0 C0.66 0.66 1.32 1.32 2 2 C1.34 2 0.68 2 0 2 C0 1.34 0 0.68 0 0 Z " fill="#F05929" transform="translate(381,255)"/>
<path d="M0 0 C0.99 0.495 0.99 0.495 2 1 C1.01 1.495 1.01 1.495 0 2 C0 1.34 0 0.68 0 0 Z " fill="#ED5B28" transform="translate(414,252)"/>
<path d="" fill="#E85826" transform="translate(0,0)"/>
<path d="" fill="#E95726" transform="translate(0,0)"/>
<path d="M0 0 C0.66 0.66 1.32 1.32 2 2 C1.34 2 0.68 2 0 2 C0 1.34 0 0.68 0 0 Z " fill="#EF5925" transform="translate(340,172)"/>
<path d="M0 0 C0.66 0 1.32 0 2 0 C1.67 0.66 1.34 1.32 1 2 C0.67 1.34 0.34 0.68 0 0 Z " fill="#E25828" transform="translate(437,155)"/>
<path d="" fill="#E35729" transform="translate(0,0)"/>
<path d="M0 0 C0.99 0.495 0.99 0.495 2 1 C1.01 1.495 1.01 1.495 0 2 C0 1.34 0 0.68 0 0 Z " fill="#B16E53" transform="translate(436,79)"/>
<path d="" fill="#977F75" transform="translate(0,0)"/>
<path d="M0 0 C2 1 2 1 2 1 Z " fill="#917F76" transform="translate(436,511)"/>
<path d="" fill="#91857D" transform="translate(0,0)"/>
<path d="" fill="#92847C" transform="translate(0,0)"/>
<path d="" fill="#90837A" transform="translate(0,0)"/>
<path d="" fill="#91827A" transform="translate(0,0)"/>
<path d="" fill="#92837A" transform="translate(0,0)"/>
<path d="" fill="#928278" transform="translate(0,0)"/>
<path d="" fill="#938077" transform="translate(0,0)"/>
<path d="" fill="#947F73" transform="translate(0,0)"/>
<path d="" fill="#937F73" transform="translate(0,0)"/>
<path d="M0 0 C2 1 2 1 2 1 Z " fill="#99786A" transform="translate(436,463)"/>
<path d="" fill="#A46E59" transform="translate(0,0)"/>
<path d="" fill="#957D71" transform="translate(0,0)"/>
<path d="" fill="#967C6F" transform="translate(0,0)"/>
<path d="" fill="#987B6D" transform="translate(0,0)"/>
<path d="M0 0 C2 1 2 1 2 1 Z " fill="#A07462" transform="translate(436,439)"/>
<path d="" fill="#9B7A6C" transform="translate(0,0)"/>
<path d="" fill="#9A796A" transform="translate(0,0)"/>
<path d="" fill="#9C796C" transform="translate(0,0)"/>
<path d="M0 0 C2 1 2 1 2 1 Z " fill="#A3735F" transform="translate(436,431)"/>
<path d="" fill="#9C796A" transform="translate(0,0)"/>
<path d="" fill="#9B7968" transform="translate(0,0)"/>
<path d="" fill="#9E7868" transform="translate(0,0)"/>
<path d="" fill="#C16C4B" transform="translate(0,0)"/>
<path d="" fill="#E05A2A" transform="translate(0,0)"/>
<path d="" fill="#ED5725" transform="translate(0,0)"/>
<path d="M0 0 C2 1 2 1 2 1 Z " fill="#ED5626" transform="translate(193,359)"/>
<path d="" fill="#B36E53" transform="translate(0,0)"/>
<path d="M0 0 C2 1 2 1 2 1 Z " fill="#E75624" transform="translate(166,354)"/>
<path d="" fill="#E95728" transform="translate(0,0)"/>
<path d="" fill="#B66E52" transform="translate(0,0)"/>
<path d="M0 0 C2 1 2 1 2 1 Z " fill="#F25824" transform="translate(380,322)"/>
<path d="M0 0 C2 1 2 1 2 1 Z " fill="#EA5A28" transform="translate(110,297)"/>
<path d="" fill="#BA6E51" transform="translate(0,0)"/>
<path d="" fill="#F45824" transform="translate(0,0)"/>
<path d="M0 0 C2 1 2 1 2 1 Z " fill="#F45A23" transform="translate(140,263)"/>
<path d="M0 0 C2 1 2 1 2 1 Z " fill="#F05623" transform="translate(287,261)"/>
<path d="M0 0 C2 1 2 1 2 1 Z " fill="#F35926" transform="translate(395,256)"/>
<path d="M0 0 C2 1 2 1 2 1 Z " fill="#F25827" transform="translate(377,255)"/>
<path d="" fill="#EF5624" transform="translate(0,0)"/>
<path d="M0 0 C2 1 2 1 2 1 Z " fill="#F35925" transform="translate(113,255)"/>
<path d="" fill="#F15825" transform="translate(0,0)"/>
<path d="M0 0 C2 1 2 1 2 1 Z " fill="#F35925" transform="translate(142,253)"/>
<path d="" fill="#F25A26" transform="translate(0,0)"/>
<path d="" fill="#E85928" transform="translate(0,0)"/>
<path d="M0 0 C2 1 2 1 2 1 Z " fill="#F05623" transform="translate(164,245)"/>
<path d="M0 0 C2 1 2 1 2 1 Z " fill="#E85A28" transform="translate(76,240)"/>
<path d="M0 0 C2 1 2 1 2 1 Z " fill="#F05924" transform="translate(324,232)"/>
<path d="" fill="#C36A4A" transform="translate(0,0)"/>
<path d="" fill="#F05723" transform="translate(0,0)"/>
<path d="" fill="#E65A2A" transform="translate(0,0)"/>
<path d="" fill="#EE5722" transform="translate(0,0)"/>
<path d="" fill="#EC5726" transform="translate(0,0)"/>
<path d="" fill="#C46947" transform="translate(0,0)"/>
<path d="" fill="#F15722" transform="translate(0,0)"/>
<path d="" fill="#E65524" transform="translate(0,0)"/>
<path d="" fill="#F05724" transform="translate(0,0)"/>
<path d="M0 0 C2 1 2 1 2 1 Z " fill="#F45820" transform="translate(166,172)"/>
<path d="M0 0 C2 1 2 1 2 1 Z " fill="#F05623" transform="translate(342,170)"/>
<path d="" fill="#F05928" transform="translate(0,0)"/>
<path d="M0 0 C2 1 2 1 2 1 Z " fill="#E65728" transform="translate(318,162)"/>
<path d="M0 0 C2 1 2 1 2 1 Z " fill="#E65725" transform="translate(192,162)"/>
<path d="" fill="#E75927" transform="translate(0,0)"/>
<path d="" fill="#E15926" transform="translate(0,0)"/>
<path d="" fill="#EE5A25" transform="translate(0,0)"/>
<path d="M0 0 C2 1 2 1 2 1 Z " fill="#EE5624" transform="translate(337,151)"/>
<path d="" fill="#BB6D4F" transform="translate(0,0)"/>
<path d="" fill="#EB5121" transform="translate(0,0)"/>
<path d="M0 0 C2 1 2 1 2 1 Z " fill="#E35827" transform="translate(422,140)"/>
<path d="M0 0 C2 1 2 1 2 1 Z " fill="#EC5725" transform="translate(331,136)"/>
<path d="" fill="#E85422" transform="translate(0,0)"/>
<path d="" fill="#E65927" transform="translate(0,0)"/>
<path d="M0 0 C2 1 2 1 2 1 Z " fill="#E65526" transform="translate(340,109)"/>
<path d="M0 0 C2 1 2 1 2 1 Z " fill="#DF5B2A" transform="translate(166,108)"/>
<path d="" fill="#AD725A" transform="translate(0,0)"/>
<path d="" fill="#A77561" transform="translate(0,0)"/>
<path d="" fill="#A57664" transform="translate(0,0)"/>
<path d="M0 0 C2 1 2 1 2 1 Z " fill="#A37865" transform="translate(483,72)"/>
<path d="" fill="#A27866" transform="translate(0,0)"/>
<path d="" fill="#A07867" transform="translate(0,0)"/>
<path d="" fill="#A17562" transform="translate(0,0)"/>
<path d="" fill="#AF6C53" transform="translate(0,0)"/>
<path d="" fill="#9E7A6B" transform="translate(0,0)"/>
<path d="" fill="#9E7A6A" transform="translate(0,0)"/>
<path d="" fill="#9C7B6D" transform="translate(0,0)"/>
<path d="" fill="#9D7C6D" transform="translate(0,0)"/>
<path d="" fill="#9B7D6E" transform="translate(0,0)"/>
<path d="" fill="#997D70" transform="translate(0,0)"/>
<path d="" fill="#978073" transform="translate(0,0)"/>
<path d="" fill="#92847D" transform="translate(0,0)"/>
<path d="" fill="#937D73" transform="translate(0,0)"/>
<path d="" fill="#93796D" transform="translate(0,0)"/>
<path d="" fill="#95786B" transform="translate(0,0)"/>
<path d="" fill="#907D70" transform="translate(0,0)"/>
<path d="" fill="#90847E" transform="translate(0,0)"/>
<path d="" fill="#91857D" transform="translate(0,0)"/>
<path d="" fill="#91827B" transform="translate(0,0)"/>
<path d="" fill="#947A6A" transform="translate(0,0)"/>
<path d="" fill="#977868" transform="translate(0,0)"/>
<path d="" fill="#8B827D" transform="translate(0,0)"/>
<path d="" fill="#8B857F" transform="translate(0,0)"/>
<path d="" fill="#91867C" transform="translate(0,0)"/>
<path d="" fill="#91857C" transform="translate(0,0)"/>
<path d="" fill="#918075" transform="translate(0,0)"/>
<path d="" fill="#8D8882" transform="translate(0,0)"/>
<path d="" fill="#92857E" transform="translate(0,0)"/>
<path d="" fill="#967669" transform="translate(0,0)"/>
<path d="" fill="#947C71" transform="translate(0,0)"/>
<path d="" fill="#96776A" transform="translate(0,0)"/>
<path d="" fill="#977569" transform="translate(0,0)"/>
<path d="" fill="#977668" transform="translate(0,0)"/>
<path d="" fill="#8E837A" transform="translate(0,0)"/>
<path d="" fill="#908078" transform="translate(0,0)"/>
<path d="" fill="#96776A" transform="translate(0,0)"/>
<path d="" fill="#928277" transform="translate(0,0)"/>
<path d="" fill="#94776A" transform="translate(0,0)"/>
<path d="" fill="#928177" transform="translate(0,0)"/>
<path d="" fill="#937E73" transform="translate(0,0)"/>
<path d="" fill="#957D72" transform="translate(0,0)"/>
<path d="" fill="#977768" transform="translate(0,0)"/>
<path d="" fill="#8F7E75" transform="translate(0,0)"/>
<path d="" fill="#8E8782" transform="translate(0,0)"/>
<path d="" fill="#90867E" transform="translate(0,0)"/>
<path d="" fill="#91857D" transform="translate(0,0)"/>
<path d="" fill="#92847A" transform="translate(0,0)"/>
<path d="" fill="#937B6F" transform="translate(0,0)"/>
<path d="" fill="#8D857C" transform="translate(0,0)"/>
<path d="" fill="#94827D" transform="translate(0,0)"/>
<path d="" fill="#977568" transform="translate(0,0)"/>
<path d="" fill="#9A7665" transform="translate(0,0)"/>
<path d="" fill="#938077" transform="translate(0,0)"/>
<path d="" fill="#937D71" transform="translate(0,0)"/>
<path d="" fill="#997664" transform="translate(0,0)"/>
<path d="" fill="#8D8881" transform="translate(0,0)"/>
<path d="" fill="#92847A" transform="translate(0,0)"/>
<path d="" fill="#947D71" transform="translate(0,0)"/>
<path d="" fill="#8F7E72" transform="translate(0,0)"/>
<path d="" fill="#8E8780" transform="translate(0,0)"/>
<path d="" fill="#92847C" transform="translate(0,0)"/>
<path d="" fill="#948177" transform="translate(0,0)"/>
<path d="" fill="#968074" transform="translate(0,0)"/>
<path d="" fill="#967A6F" transform="translate(0,0)"/>
<path d="" fill="#957A6D" transform="translate(0,0)"/>
<path d="" fill="#8D837A" transform="translate(0,0)"/>
<path d="" fill="#938077" transform="translate(0,0)"/>
<path d="" fill="#9C7461" transform="translate(0,0)"/>
<path d="" fill="#96786B" transform="translate(0,0)"/>
<path d="" fill="#908176" transform="translate(0,0)"/>
<path d="" fill="#927E73" transform="translate(0,0)"/>
<path d="" fill="#957B70" transform="translate(0,0)"/>
<path d="" fill="#9C7461" transform="translate(0,0)"/>
<path d="" fill="#9A7162" transform="translate(0,0)"/>
<path d="" fill="#937A6E" transform="translate(0,0)"/>
<path d="" fill="#928075" transform="translate(0,0)"/>
<path d="" fill="#908179" transform="translate(0,0)"/>
<path d="" fill="#938178" transform="translate(0,0)"/>
<path d="" fill="#957C6F" transform="translate(0,0)"/>
<path d="" fill="#9B7463" transform="translate(0,0)"/>
<path d="" fill="#96786C" transform="translate(0,0)"/>
<path d="" fill="#937B6E" transform="translate(0,0)"/>
<path d="" fill="#8E857E" transform="translate(0,0)"/>
<path d="" fill="#918177" transform="translate(0,0)"/>
<path d="" fill="#95776A" transform="translate(0,0)"/>
<path d="" fill="#938279" transform="translate(0,0)"/>
<path d="" fill="#948177" transform="translate(0,0)"/>
<path d="" fill="#968074" transform="translate(0,0)"/>
<path d="" fill="#9A7667" transform="translate(0,0)"/>
<path d="" fill="#9C7363" transform="translate(0,0)"/>
<path d="" fill="#958179" transform="translate(0,0)"/>
<path d="" fill="#948077" transform="translate(0,0)"/>
<path d="" fill="#98776A" transform="translate(0,0)"/>
<path d="" fill="#927E74" transform="translate(0,0)"/>
<path d="" fill="#947F75" transform="translate(0,0)"/>
<path d="" fill="#967A6D" transform="translate(0,0)"/>
<path d="" fill="#9E735E" transform="translate(0,0)"/>
<path d="" fill="#8F8278" transform="translate(0,0)"/>
<path d="" fill="#8E8079" transform="translate(0,0)"/>
<path d="" fill="#967A6C" transform="translate(0,0)"/>
<path d="" fill="#8E8179" transform="translate(0,0)"/>
<path d="" fill="#8D847C" transform="translate(0,0)"/>
<path d="" fill="#977669" transform="translate(0,0)"/>
<path d="" fill="#997769" transform="translate(0,0)"/>
<path d="" fill="#9F715D" transform="translate(0,0)"/>
<path d="" fill="#937D72" transform="translate(0,0)"/>
<path d="" fill="#947C70" transform="translate(0,0)"/>
<path d="" fill="#9C7563" transform="translate(0,0)"/>
<path d="" fill="#927D70" transform="translate(0,0)"/>
<path d="" fill="#977A6A" transform="translate(0,0)"/>
<path d="" fill="#99796C" transform="translate(0,0)"/>
<path d="" fill="#9F7461" transform="translate(0,0)"/>
<path d="" fill="#A0715C" transform="translate(0,0)"/>
<path d="" fill="#927D72" transform="translate(0,0)"/>
<path d="" fill="#907F75" transform="translate(0,0)"/>
<path d="" fill="#98796B" transform="translate(0,0)"/>
<path d="" fill="#9B7969" transform="translate(0,0)"/>
<path d="" fill="#A0715D" transform="translate(0,0)"/>
<path d="" fill="#96786B" transform="translate(0,0)"/>
<path d="" fill="#8F8278" transform="translate(0,0)"/>
<path d="" fill="#8F827A" transform="translate(0,0)"/>
<path d="" fill="#967F74" transform="translate(0,0)"/>
<path d="" fill="#957C71" transform="translate(0,0)"/>
<path d="" fill="#948076" transform="translate(0,0)"/>
<path d="" fill="#957E73" transform="translate(0,0)"/>
<path d="" fill="#987A6C" transform="translate(0,0)"/>
<path d="" fill="#9A7565" transform="translate(0,0)"/>
<path d="" fill="#977E75" transform="translate(0,0)"/>
<path d="" fill="#9C7566" transform="translate(0,0)"/>
<path d="" fill="#957B6F" transform="translate(0,0)"/>
<path d="" fill="#9F7362" transform="translate(0,0)"/>
<path d="" fill="#947F73" transform="translate(0,0)"/>
<path d="" fill="#977B6F" transform="translate(0,0)"/>
<path d="" fill="#9A7869" transform="translate(0,0)"/>
<path d="" fill="#A77058" transform="translate(0,0)"/>
<path d="" fill="#A3705C" transform="translate(0,0)"/>
<path d="" fill="#987766" transform="translate(0,0)"/>
<path d="" fill="#97796B" transform="translate(0,0)"/>
<path d="" fill="#927F74" transform="translate(0,0)"/>
<path d="" fill="#9A7869" transform="translate(0,0)"/>
<path d="" fill="#9D7766" transform="translate(0,0)"/>
<path d="" fill="#9E7260" transform="translate(0,0)"/>
<path d="" fill="#9A7865" transform="translate(0,0)"/>
<path d="" fill="#997768" transform="translate(0,0)"/>
<path d="" fill="#8F8279" transform="translate(0,0)"/>
<path d="" fill="#9B7C6E" transform="translate(0,0)"/>
<path d="" fill="#987E74" transform="translate(0,0)"/>
<path d="" fill="#977C72" transform="translate(0,0)"/>
<path d="" fill="#9A7867" transform="translate(0,0)"/>
<path d="" fill="#A76C56" transform="translate(0,0)"/>
<path d="" fill="#967D70" transform="translate(0,0)"/>
<path d="" fill="#A66D58" transform="translate(0,0)"/>
<path d="" fill="#957D71" transform="translate(0,0)"/>
<path d="" fill="#967E71" transform="translate(0,0)"/>
<path d="" fill="#977D70" transform="translate(0,0)"/>
<path d="" fill="#9D7766" transform="translate(0,0)"/>
<path d="" fill="#A4725E" transform="translate(0,0)"/>
<path d="" fill="#987B6E" transform="translate(0,0)"/>
<path d="" fill="#917F76" transform="translate(0,0)"/>
<path d="" fill="#918176" transform="translate(0,0)"/>
<path d="" fill="#918177" transform="translate(0,0)"/>
<path d="" fill="#997A68" transform="translate(0,0)"/>
<path d="" fill="#9A7C6D" transform="translate(0,0)"/>
<path d="" fill="#9F7766" transform="translate(0,0)"/>
<path d="" fill="#9C7666" transform="translate(0,0)"/>
<path d="" fill="#AC6D52" transform="translate(0,0)"/>
<path d="" fill="#9A796A" transform="translate(0,0)"/>
<path d="" fill="#99776A" transform="translate(0,0)"/>
<path d="" fill="#A36F5E" transform="translate(0,0)"/>
<path d="" fill="#977D71" transform="translate(0,0)"/>
<path d="" fill="#977D6F" transform="translate(0,0)"/>
<path d="" fill="#9E7663" transform="translate(0,0)"/>
<path d="" fill="#AB6F57" transform="translate(0,0)"/>
<path d="" fill="#957D70" transform="translate(0,0)"/>
<path d="" fill="#997D6E" transform="translate(0,0)"/>
<path d="" fill="#A07664" transform="translate(0,0)"/>
<path d="" fill="#A37561" transform="translate(0,0)"/>
<path d="" fill="#938075" transform="translate(0,0)"/>
<path d="" fill="#A27462" transform="translate(0,0)"/>
<path d="" fill="#A37160" transform="translate(0,0)"/>
<path d="" fill="#A07868" transform="translate(0,0)"/>
<path d="" fill="#A4725D" transform="translate(0,0)"/>
<path d="" fill="#A86F5A" transform="translate(0,0)"/>
<path d="" fill="#9B7766" transform="translate(0,0)"/>
<path d="" fill="#AF6951" transform="translate(0,0)"/>
<path d="" fill="#9E7868" transform="translate(0,0)"/>
<path d="" fill="#A27563" transform="translate(0,0)"/>
<path d="" fill="#987B6D" transform="translate(0,0)"/>
<path d="" fill="#A27562" transform="translate(0,0)"/>
<path d="" fill="#9E7867" transform="translate(0,0)"/>
<path d="" fill="#967C6F" transform="translate(0,0)"/>
<path d="" fill="#967D6F" transform="translate(0,0)"/>
<path d="" fill="#947E73" transform="translate(0,0)"/>
<path d="" fill="#9B7A6A" transform="translate(0,0)"/>
<path d="" fill="#A8705A" transform="translate(0,0)"/>
<path d="" fill="#B36B50" transform="translate(0,0)"/>
<path d="" fill="#B66A4C" transform="translate(0,0)"/>
<path d="" fill="#B8684B" transform="translate(0,0)"/>
<path d="" fill="#A17664" transform="translate(0,0)"/>
<path d="" fill="#9E7663" transform="translate(0,0)"/>
<path d="" fill="#B36D50" transform="translate(0,0)"/>
<path d="" fill="#A4735E" transform="translate(0,0)"/>
<path d="" fill="#A4735E" transform="translate(0,0)"/>
<path d="" fill="#AC6F59" transform="translate(0,0)"/>
<path d="" fill="#A17664" transform="translate(0,0)"/>
<path d="" fill="#987A6E" transform="translate(0,0)"/>
<path d="" fill="#977B6D" transform="translate(0,0)"/>
<path d="" fill="#957E71" transform="translate(0,0)"/>
<path d="" fill="#A3735F" transform="translate(0,0)"/>
<path d="" fill="#9F7868" transform="translate(0,0)"/>
<path d="" fill="#A8745D" transform="translate(0,0)"/>
<path d="" fill="#A5715C" transform="translate(0,0)"/>
<path d="" fill="#BB6849" transform="translate(0,0)"/>
<path d="" fill="#9F7866" transform="translate(0,0)"/>
<path d="" fill="#9B7667" transform="translate(0,0)"/>
<path d="" fill="#9B786A" transform="translate(0,0)"/>
<path d="" fill="#977B6E" transform="translate(0,0)"/>
<path d="" fill="#977D6E" transform="translate(0,0)"/>
<path d="" fill="#A07867" transform="translate(0,0)"/>
<path d="" fill="#A27765" transform="translate(0,0)"/>
<path d="" fill="#AD715A" transform="translate(0,0)"/>
<path d="" fill="#AA7059" transform="translate(0,0)"/>
<path d="" fill="#B86A4E" transform="translate(0,0)"/>
<path d="" fill="#A4725F" transform="translate(0,0)"/>
<path d="" fill="#A17663" transform="translate(0,0)"/>
<path d="" fill="#A07665" transform="translate(0,0)"/>
<path d="" fill="#9C7768" transform="translate(0,0)"/>
<path d="" fill="#AE7157" transform="translate(0,0)"/>
<path d="" fill="#C56643" transform="translate(0,0)"/>
<path d="" fill="#9E7867" transform="translate(0,0)"/>
<path d="" fill="#9A7A6C" transform="translate(0,0)"/>
<path d="" fill="#B07158" transform="translate(0,0)"/>
<path d="" fill="#A27663" transform="translate(0,0)"/>
<path d="" fill="#AE7056" transform="translate(0,0)"/>
<path d="" fill="#9A7A6C" transform="translate(0,0)"/>
<path d="" fill="#A37462" transform="translate(0,0)"/>
<path d="" fill="#A37561" transform="translate(0,0)"/>
<path d="" fill="#A47561" transform="translate(0,0)"/>
<path d="" fill="#AA725D" transform="translate(0,0)"/>
<path d="" fill="#A57561" transform="translate(0,0)"/>
<path d="" fill="#AA745A" transform="translate(0,0)"/>
<path d="" fill="#B17055" transform="translate(0,0)"/>
<path d="" fill="#B96D50" transform="translate(0,0)"/>
<path d="" fill="#D0633D" transform="translate(0,0)"/>
<path d="" fill="#9C7A6A" transform="translate(0,0)"/>
<path d="" fill="#A9725D" transform="translate(0,0)"/>
<path d="" fill="#A77561" transform="translate(0,0)"/>
<path d="" fill="#BD6A4D" transform="translate(0,0)"/>
<path d="" fill="#B56F53" transform="translate(0,0)"/>
<path d="" fill="#C76541" transform="translate(0,0)"/>
<path d="" fill="#AD7259" transform="translate(0,0)"/>
<path d="" fill="#A8735D" transform="translate(0,0)"/>
<path d="" fill="#9D796A" transform="translate(0,0)"/>
<path d="" fill="#A7735E" transform="translate(0,0)"/>
<path d="" fill="#A27562" transform="translate(0,0)"/>
<path d="" fill="#B86D52" transform="translate(0,0)"/>
<path d="" fill="#A57562" transform="translate(0,0)"/>
<path d="" fill="#9E7768" transform="translate(0,0)"/>
<path d="" fill="#A5755F" transform="translate(0,0)"/>
<path d="" fill="#A9745D" transform="translate(0,0)"/>
<path d="" fill="#AC735B" transform="translate(0,0)"/>
<path d="" fill="#BB6E50" transform="translate(0,0)"/>
<path d="" fill="#A9735E" transform="translate(0,0)"/>
<path d="" fill="#B96D4E" transform="translate(0,0)"/>
<path d="" fill="#DA5F32" transform="translate(0,0)"/>
<path d="" fill="#AB755D" transform="translate(0,0)"/>
<path d="" fill="#BD6D4D" transform="translate(0,0)"/>
<path d="" fill="#D7643B" transform="translate(0,0)"/>
<path d="" fill="#A07866" transform="translate(0,0)"/>
<path d="" fill="#AD7058" transform="translate(0,0)"/>
<path d="" fill="#C46A48" transform="translate(0,0)"/>
<path d="" fill="#D96234" transform="translate(0,0)"/>
<path d="" fill="#AC7159" transform="translate(0,0)"/>
<path d="" fill="#B17159" transform="translate(0,0)"/>
<path d="" fill="#C76945" transform="translate(0,0)"/>
<path d="" fill="#E05A2F" transform="translate(0,0)"/>
<path d="" fill="#AF7059" transform="translate(0,0)"/>
<path d="" fill="#B07058" transform="translate(0,0)"/>
<path d="" fill="#BA6E50" transform="translate(0,0)"/>
<path d="" fill="#D66138" transform="translate(0,0)"/>
<path d="" fill="#D95F34" transform="translate(0,0)"/>
<path d="" fill="#CC6843" transform="translate(0,0)"/>
<path d="" fill="#A77561" transform="translate(0,0)"/>
<path d="" fill="#AE7057" transform="translate(0,0)"/>
<path d="" fill="#DB6236" transform="translate(0,0)"/>
<path d="" fill="#E75729" transform="translate(0,0)"/>
<path d="" fill="#CD6740" transform="translate(0,0)"/>
<path d="" fill="#B07058" transform="translate(0,0)"/>
<path d="" fill="#EB5625" transform="translate(0,0)"/>
<path d="" fill="#D0663E" transform="translate(0,0)"/>
<path d="" fill="#E85C2D" transform="translate(0,0)"/>
<path d="" fill="#A9745F" transform="translate(0,0)"/>
<path d="" fill="#B06E55" transform="translate(0,0)"/>
<path d="" fill="#E65C2A" transform="translate(0,0)"/>
<path d="" fill="#EE5626" transform="translate(0,0)"/>
<path d="" fill="#D5653C" transform="translate(0,0)"/>
<path d="" fill="#D2643B" transform="translate(0,0)"/>
<path d="" fill="#EF5B29" transform="translate(0,0)"/>
<path d="" fill="#EB5825" transform="translate(0,0)"/>
<path d="" fill="#B36D54" transform="translate(0,0)"/>
<path d="" fill="#B26F54" transform="translate(0,0)"/>
<path d="" fill="#F05926" transform="translate(0,0)"/>
<path d="" fill="#ED5A26" transform="translate(0,0)"/>
<path d="" fill="#F15A26" transform="translate(0,0)"/>
<path d="" fill="#D6633A" transform="translate(0,0)"/>
<path d="" fill="#F15925" transform="translate(0,0)"/>
<path d="" fill="#B56E54" transform="translate(0,0)"/>
<path d="" fill="#EE5722" transform="translate(0,0)"/>
<path d="" fill="#EB5328" transform="translate(0,0)"/>
<path d="" fill="#EF5A26" transform="translate(0,0)"/>
<path d="" fill="#EF5924" transform="translate(0,0)"/>
<path d="" fill="#D46339" transform="translate(0,0)"/>
<path d="" fill="#EF5B26" transform="translate(0,0)"/>
<path d="" fill="#B07058" transform="translate(0,0)"/>
<path d="" fill="#B56D52" transform="translate(0,0)"/>
<path d="" fill="#B76D51" transform="translate(0,0)"/>
<path d="" fill="#F35A26" transform="translate(0,0)"/>
<path d="" fill="#F05925" transform="translate(0,0)"/>
<path d="" fill="#AF6F57" transform="translate(0,0)"/>
<path d="" fill="#E35C2D" transform="translate(0,0)"/>
<path d="" fill="#AD715A" transform="translate(0,0)"/>
<path d="" fill="#E75325" transform="translate(0,0)"/>
<path d="" fill="#D66337" transform="translate(0,0)"/>
<path d="" fill="#B86E51" transform="translate(0,0)"/>
<path d="" fill="#EF5B27" transform="translate(0,0)"/>
<path d="" fill="#F15924" transform="translate(0,0)"/>
<path d="" fill="#B76F52" transform="translate(0,0)"/>
<path d="" fill="#D96238" transform="translate(0,0)"/>
<path d="" fill="#F15C26" transform="translate(0,0)"/>
<path d="" fill="#E35828" transform="translate(0,0)"/>
<path d="" fill="#F25925" transform="translate(0,0)"/>
<path d="" fill="#EB5522" transform="translate(0,0)"/>
<path d="" fill="#D76238" transform="translate(0,0)"/>
<path d="" fill="#E85829" transform="translate(0,0)"/>
<path d="" fill="#B17058" transform="translate(0,0)"/>
<path d="" fill="#B76F52" transform="translate(0,0)"/>
<path d="" fill="#B86E52" transform="translate(0,0)"/>
<path d="" fill="#AF7059" transform="translate(0,0)"/>
<path d="" fill="#B86E52" transform="translate(0,0)"/>
<path d="" fill="#D66338" transform="translate(0,0)"/>
<path d="" fill="#E75D2C" transform="translate(0,0)"/>
<path d="" fill="#EA5827" transform="translate(0,0)"/>
<path d="" fill="#AF7159" transform="translate(0,0)"/>
<path d="" fill="#F15823" transform="translate(0,0)"/>
<path d="" fill="#D4643A" transform="translate(0,0)"/>
<path d="" fill="#B96E54" transform="translate(0,0)"/>
<path d="" fill="#BA6E51" transform="translate(0,0)"/>
<path d="" fill="#F05725" transform="translate(0,0)"/>
<path d="" fill="#F15B27" transform="translate(0,0)"/>
<path d="" fill="#F05A28" transform="translate(0,0)"/>
<path d="" fill="#E65C2B" transform="translate(0,0)"/>
<path d="" fill="#F15720" transform="translate(0,0)"/>
<path d="" fill="#EA5B2C" transform="translate(0,0)"/>
<path d="" fill="#F15B27" transform="translate(0,0)"/>
<path d="" fill="#E85A27" transform="translate(0,0)"/>
<path d="" fill="#E45829" transform="translate(0,0)"/>
<path d="" fill="#E45C27" transform="translate(0,0)"/>
<path d="" fill="#F15927" transform="translate(0,0)"/>
<path d="" fill="#B37056" transform="translate(0,0)"/>
<path d="" fill="#D3643B" transform="translate(0,0)"/>
<path d="" fill="#F25925" transform="translate(0,0)"/>
<path d="" fill="#B86F53" transform="translate(0,0)"/>
<path d="" fill="#D5653B" transform="translate(0,0)"/>
<path d="" fill="#B07158" transform="translate(0,0)"/>
<path d="" fill="#E85628" transform="translate(0,0)"/>
<path d="" fill="#B96F52" transform="translate(0,0)"/>
<path d="" fill="#D6653C" transform="translate(0,0)"/>
<path d="" fill="#E55E2F" transform="translate(0,0)"/>
<path d="" fill="#D2643C" transform="translate(0,0)"/>
<path d="" fill="#F25A26" transform="translate(0,0)"/>
<path d="" fill="#B76F54" transform="translate(0,0)"/>
<path d="" fill="#BA6D52" transform="translate(0,0)"/>
<path d="" fill="#EA5A25" transform="translate(0,0)"/>
<path d="" fill="#EC5B29" transform="translate(0,0)"/>
<path d="" fill="#D3643A" transform="translate(0,0)"/>
<path d="" fill="#EC5627" transform="translate(0,0)"/>
<path d="" fill="#B86E52" transform="translate(0,0)"/>
<path d="" fill="#E75926" transform="translate(0,0)"/>
<path d="" fill="#BA6F50" transform="translate(0,0)"/>
<path d="" fill="#D6643C" transform="translate(0,0)"/>
<path d="" fill="#B27058" transform="translate(0,0)"/>
<path d="" fill="#E65E34" transform="translate(0,0)"/>
<path d="" fill="#BB6F53" transform="translate(0,0)"/>
<path d="" fill="#D5643B" transform="translate(0,0)"/>
<path d="" fill="#F15827" transform="translate(0,0)"/>
<path d="" fill="#E95C26" transform="translate(0,0)"/>
<path d="" fill="#F25B24" transform="translate(0,0)"/>
<path d="" fill="#D5633C" transform="translate(0,0)"/>
<path d="" fill="#E65A28" transform="translate(0,0)"/>
<path d="" fill="#BC6E51" transform="translate(0,0)"/>
<path d="" fill="#F25722" transform="translate(0,0)"/>
<path d="" fill="#E95C29" transform="translate(0,0)"/>
<path d="" fill="#D9643A" transform="translate(0,0)"/>
<path d="" fill="#D76339" transform="translate(0,0)"/>
<path d="" fill="#F35824" transform="translate(0,0)"/>
<path d="" fill="#BB6E51" transform="translate(0,0)"/>
<path d="" fill="#BD6E4F" transform="translate(0,0)"/>
<path d="" fill="#D96338" transform="translate(0,0)"/>
<path d="" fill="#F35824" transform="translate(0,0)"/>
<path d="" fill="#F05A25" transform="translate(0,0)"/>
<path d="" fill="#BD6E4F" transform="translate(0,0)"/>
<path d="" fill="#D76236" transform="translate(0,0)"/>
<path d="" fill="#EF5924" transform="translate(0,0)"/>
<path d="" fill="#F15823" transform="translate(0,0)"/>
<path d="" fill="#BD6D4F" transform="translate(0,0)"/>
<path d="" fill="#EF5725" transform="translate(0,0)"/>
<path d="" fill="#BB6E50" transform="translate(0,0)"/>
<path d="" fill="#C86947" transform="translate(0,0)"/>
<path d="" fill="#F35924" transform="translate(0,0)"/>
<path d="" fill="#F25926" transform="translate(0,0)"/>
<path d="" fill="#BD6D4D" transform="translate(0,0)"/>
<path d="" fill="#BD6E4F" transform="translate(0,0)"/>
<path d="" fill="#DD6135" transform="translate(0,0)"/>
<path d="" fill="#EF5625" transform="translate(0,0)"/>
<path d="" fill="#F25B25" transform="translate(0,0)"/>
<path d="" fill="#DA6335" transform="translate(0,0)"/>
<path d="" fill="#F05B29" transform="translate(0,0)"/>
<path d="" fill="#EF5C27" transform="translate(0,0)"/>
<path d="" fill="#E15F31" transform="translate(0,0)"/>
<path d="" fill="#ED5929" transform="translate(0,0)"/>
<path d="" fill="#F35725" transform="translate(0,0)"/>
<path d="" fill="#EE5C2A" transform="translate(0,0)"/>
<path d="" fill="#F05926" transform="translate(0,0)"/>
<path d="" fill="#F25C25" transform="translate(0,0)"/>
<path d="" fill="#F25A24" transform="translate(0,0)"/>
<path d="" fill="#EF5922" transform="translate(0,0)"/>
<path d="" fill="#F35722" transform="translate(0,0)"/>
<path d="" fill="#F45A25" transform="translate(0,0)"/>
<path d="" fill="#F25924" transform="translate(0,0)"/>
<path d="" fill="#F15624" transform="translate(0,0)"/>
<path d="" fill="#F25521" transform="translate(0,0)"/>
<path d="" fill="#F45523" transform="translate(0,0)"/>
<path d="" fill="#F35723" transform="translate(0,0)"/>
<path d="" fill="#F25523" transform="translate(0,0)"/>
<path d="" fill="#F15923" transform="translate(0,0)"/>
<path d="" fill="#F35B27" transform="translate(0,0)"/>
<path d="" fill="#BB6B4D" transform="translate(0,0)"/>
<path d="" fill="#E85828" transform="translate(0,0)"/>
<path d="" fill="#F15721" transform="translate(0,0)"/>
<path d="" fill="#EC5B28" transform="translate(0,0)"/>
<path d="" fill="#F45926" transform="translate(0,0)"/>
<path d="" fill="#F45725" transform="translate(0,0)"/>
<path d="" fill="#B67054" transform="translate(0,0)"/>
<path d="" fill="#F25925" transform="translate(0,0)"/>
<path d="" fill="#F45C28" transform="translate(0,0)"/>
<path d="" fill="#F15927" transform="translate(0,0)"/>
<path d="" fill="#DD6032" transform="translate(0,0)"/>
<path d="" fill="#F05826" transform="translate(0,0)"/>
<path d="" fill="#F35922" transform="translate(0,0)"/>
<path d="" fill="#F15522" transform="translate(0,0)"/>
<path d="" fill="#F25824" transform="translate(0,0)"/>
<path d="" fill="#EF5927" transform="translate(0,0)"/>
<path d="" fill="#B77054" transform="translate(0,0)"/>
<path d="" fill="#BD6D4E" transform="translate(0,0)"/>
<path d="" fill="#EE5C29" transform="translate(0,0)"/>
<path d="" fill="#ED5B28" transform="translate(0,0)"/>
<path d="" fill="#F35926" transform="translate(0,0)"/>
<path d="" fill="#EE5725" transform="translate(0,0)"/>
<path d="" fill="#F05725" transform="translate(0,0)"/>
<path d="" fill="#E16032" transform="translate(0,0)"/>
<path d="" fill="#B76E53" transform="translate(0,0)"/>
<path d="" fill="#F05521" transform="translate(0,0)"/>
<path d="" fill="#F15624" transform="translate(0,0)"/>
<path d="" fill="#EA5829" transform="translate(0,0)"/>
<path d="" fill="#F05622" transform="translate(0,0)"/>
<path d="" fill="#E25F2E" transform="translate(0,0)"/>
<path d="" fill="#F15822" transform="translate(0,0)"/>
<path d="" fill="#F15421" transform="translate(0,0)"/>
<path d="" fill="#BF6C4C" transform="translate(0,0)"/>
<path d="" fill="#F15923" transform="translate(0,0)"/>
<path d="" fill="#C16A49" transform="translate(0,0)"/>
<path d="" fill="#E85927" transform="translate(0,0)"/>
<path d="" fill="#F55623" transform="translate(0,0)"/>
<path d="" fill="#F35924" transform="translate(0,0)"/>
<path d="" fill="#E55E2D" transform="translate(0,0)"/>
<path d="" fill="#F05823" transform="translate(0,0)"/>
<path d="" fill="#E85928" transform="translate(0,0)"/>
<path d="" fill="#EE5623" transform="translate(0,0)"/>
<path d="" fill="#EB5627" transform="translate(0,0)"/>
<path d="" fill="#DF5429" transform="translate(0,0)"/>
<path d="" fill="#EC5625" transform="translate(0,0)"/>
<path d="" fill="#F25925" transform="translate(0,0)"/>
<path d="" fill="#E75A29" transform="translate(0,0)"/>
<path d="" fill="#F15823" transform="translate(0,0)"/>
<path d="" fill="#E95527" transform="translate(0,0)"/>
<path d="" fill="#E85524" transform="translate(0,0)"/>
<path d="" fill="#EA5A2A" transform="translate(0,0)"/>
<path d="" fill="#C06C4B" transform="translate(0,0)"/>
<path d="" fill="#C36B4A" transform="translate(0,0)"/>
<path d="" fill="#F05522" transform="translate(0,0)"/>
<path d="" fill="#EE5524" transform="translate(0,0)"/>
<path d="" fill="#F65721" transform="translate(0,0)"/>
<path d="" fill="#F25824" transform="translate(0,0)"/>
<path d="" fill="#ED5526" transform="translate(0,0)"/>
<path d="" fill="#E75C2A" transform="translate(0,0)"/>
<path d="" fill="#ED5525" transform="translate(0,0)"/>
<path d="" fill="#C26B4A" transform="translate(0,0)"/>
<path d="" fill="#E85526" transform="translate(0,0)"/>
<path d="" fill="#B96E51" transform="translate(0,0)"/>
<path d="" fill="#BF6B4C" transform="translate(0,0)"/>
<path d="" fill="#EA5427" transform="translate(0,0)"/>
<path d="" fill="#EB5226" transform="translate(0,0)"/>
<path d="" fill="#EA5021" transform="translate(0,0)"/>
<path d="" fill="#F25825" transform="translate(0,0)"/>
<path d="" fill="#F25A25" transform="translate(0,0)"/>
<path d="" fill="#C46A48" transform="translate(0,0)"/>
<path d="" fill="#D3633B" transform="translate(0,0)"/>
<path d="" fill="#EC5625" transform="translate(0,0)"/>
<path d="" fill="#EB5723" transform="translate(0,0)"/>
<path d="" fill="#F05722" transform="translate(0,0)"/>
<path d="" fill="#EB5929" transform="translate(0,0)"/>
<path d="" fill="#BB6E51" transform="translate(0,0)"/>
<path d="" fill="#F35927" transform="translate(0,0)"/>
<path d="" fill="#C66945" transform="translate(0,0)"/>
<path d="" fill="#F05926" transform="translate(0,0)"/>
<path d="" fill="#EE5625" transform="translate(0,0)"/>
<path d="" fill="#EC5926" transform="translate(0,0)"/>
<path d="" fill="#EA5927" transform="translate(0,0)"/>
<path d="" fill="#E95325" transform="translate(0,0)"/>
<path d="" fill="#EC5825" transform="translate(0,0)"/>
<path d="" fill="#EA5A25" transform="translate(0,0)"/>
<path d="" fill="#E5582A" transform="translate(0,0)"/>
<path d="" fill="#BA6D50" transform="translate(0,0)"/>
<path d="" fill="#EB5621" transform="translate(0,0)"/>
<path d="" fill="#C56847" transform="translate(0,0)"/>
<path d="" fill="#BA6C4F" transform="translate(0,0)"/>
<path d="" fill="#BB6D51" transform="translate(0,0)"/>
<path d="" fill="#EE5823" transform="translate(0,0)"/>
<path d="" fill="#C46946" transform="translate(0,0)"/>
<path d="" fill="#BA6E4F" transform="translate(0,0)"/>
<path d="" fill="#E95727" transform="translate(0,0)"/>
<path d="" fill="#B96E51" transform="translate(0,0)"/>
<path d="" fill="#C46948" transform="translate(0,0)"/>
<path d="" fill="#EC5724" transform="translate(0,0)"/>
<path d="" fill="#C56845" transform="translate(0,0)"/>
<path d="" fill="#EC5725" transform="translate(0,0)"/>
<path d="" fill="#E95823" transform="translate(0,0)"/>
<path d="" fill="#E35728" transform="translate(0,0)"/>
<path d="" fill="#BA6D50" transform="translate(0,0)"/>
<path d="" fill="#EC5827" transform="translate(0,0)"/>
<path d="" fill="#C56A48" transform="translate(0,0)"/>
<path d="" fill="#C46945" transform="translate(0,0)"/>
<path d="" fill="#C16A49" transform="translate(0,0)"/>
<path d="" fill="#ED5828" transform="translate(0,0)"/>
<path d="" fill="#F05723" transform="translate(0,0)"/>
<path d="" fill="#F15923" transform="translate(0,0)"/>
<path d="" fill="#F05624" transform="translate(0,0)"/>
<path d="" fill="#EF5722" transform="translate(0,0)"/>
<path d="" fill="#F25723" transform="translate(0,0)"/>
<path d="" fill="#F45821" transform="translate(0,0)"/>
<path d="" fill="#BF6A49" transform="translate(0,0)"/>
<path d="" fill="#ED5826" transform="translate(0,0)"/>
<path d="" fill="#EC5625" transform="translate(0,0)"/>
<path d="" fill="#F05825" transform="translate(0,0)"/>
<path d="" fill="#F15624" transform="translate(0,0)"/>
<path d="" fill="#ED5321" transform="translate(0,0)"/>
<path d="" fill="#EE5A26" transform="translate(0,0)"/>
<path d="" fill="#E95928" transform="translate(0,0)"/>
<path d="" fill="#C06A4A" transform="translate(0,0)"/>
<path d="" fill="#C26948" transform="translate(0,0)"/>
<path d="" fill="#F15623" transform="translate(0,0)"/>
<path d="" fill="#BD6B4C" transform="translate(0,0)"/>
<path d="" fill="#E55826" transform="translate(0,0)"/>
<path d="" fill="#E45828" transform="translate(0,0)"/>
<path d="" fill="#E75623" transform="translate(0,0)"/>
<path d="" fill="#ED5927" transform="translate(0,0)"/>
<path d="" fill="#EF5824" transform="translate(0,0)"/>
<path d="" fill="#DC592B" transform="translate(0,0)"/>
<path d="" fill="#F25925" transform="translate(0,0)"/>
<path d="" fill="#EB5727" transform="translate(0,0)"/>
<path d="" fill="#E65B2A" transform="translate(0,0)"/>
<path d="" fill="#F05925" transform="translate(0,0)"/>
<path d="" fill="#ED5927" transform="translate(0,0)"/>
<path d="" fill="#E55828" transform="translate(0,0)"/>
<path d="" fill="#E65827" transform="translate(0,0)"/>
<path d="" fill="#E15A2B" transform="translate(0,0)"/>
<path d="" fill="#E4582B" transform="translate(0,0)"/>
<path d="" fill="#E35E2D" transform="translate(0,0)"/>
<path d="" fill="#EC5925" transform="translate(0,0)"/>
<path d="" fill="#EF5925" transform="translate(0,0)"/>
<path d="" fill="#E85828" transform="translate(0,0)"/>
<path d="" fill="#E25929" transform="translate(0,0)"/>
<path d="" fill="#B36F54" transform="translate(0,0)"/>
<path d="" fill="#E25C28" transform="translate(0,0)"/>
<path d="" fill="#BD6D4D" transform="translate(0,0)"/>
<path d="" fill="#D5623A" transform="translate(0,0)"/>
<path d="" fill="#E35E2C" transform="translate(0,0)"/>
<path d="" fill="#DF5D2D" transform="translate(0,0)"/>
<path d="" fill="#EB5223" transform="translate(0,0)"/>
<path d="" fill="#DE5E2F" transform="translate(0,0)"/>
<path d="" fill="#B16F55" transform="translate(0,0)"/>
<path d="" fill="#D95E32" transform="translate(0,0)"/>
<path d="" fill="#E85B28" transform="translate(0,0)"/>
<path d="" fill="#C66642" transform="translate(0,0)"/>
<path d="" fill="#B76E50" transform="translate(0,0)"/>
<path d="" fill="#DB5E31" transform="translate(0,0)"/>
<path d="" fill="#D76034" transform="translate(0,0)"/>
<path d="" fill="#E3592A" transform="translate(0,0)"/>
<path d="" fill="#EB5823" transform="translate(0,0)"/>
<path d="" fill="#AF7056" transform="translate(0,0)"/>
<path d="" fill="#D46035" transform="translate(0,0)"/>
<path d="" fill="#E55B2A" transform="translate(0,0)"/>
<path d="" fill="#B56D52" transform="translate(0,0)"/>
<path d="" fill="#C26947" transform="translate(0,0)"/>
<path d="" fill="#E75C2B" transform="translate(0,0)"/>
<path d="" fill="#EA5923" transform="translate(0,0)"/>
<path d="" fill="#EE5623" transform="translate(0,0)"/>
<path d="" fill="#B66D51" transform="translate(0,0)"/>
<path d="" fill="#E95622" transform="translate(0,0)"/>
<path d="" fill="#EC5624" transform="translate(0,0)"/>
<path d="" fill="#E15B2D" transform="translate(0,0)"/>
<path d="" fill="#E25A2A" transform="translate(0,0)"/>
<path d="" fill="#CF6238" transform="translate(0,0)"/>
<path d="" fill="#E55C2B" transform="translate(0,0)"/>
<path d="" fill="#B46F55" transform="translate(0,0)"/>
<path d="" fill="#B46F52" transform="translate(0,0)"/>
<path d="" fill="#EA5828" transform="translate(0,0)"/>
<path d="" fill="#EE5322" transform="translate(0,0)"/>
<path d="" fill="#B17055" transform="translate(0,0)"/>
<path d="" fill="#E05328" transform="translate(0,0)"/>
<path d="" fill="#E45524" transform="translate(0,0)"/>
<path d="" fill="#E55826" transform="translate(0,0)"/>
<path d="" fill="#B46F55" transform="translate(0,0)"/>
<path d="" fill="#CA633E" transform="translate(0,0)"/>
<path d="" fill="#F05422" transform="translate(0,0)"/>
<path d="" fill="#B47055" transform="translate(0,0)"/>
<path d="" fill="#EC5623" transform="translate(0,0)"/>
<path d="" fill="#EE5626" transform="translate(0,0)"/>
<path d="" fill="#E65726" transform="translate(0,0)"/>
<path d="" fill="#C96541" transform="translate(0,0)"/>
<path d="" fill="#F05120" transform="translate(0,0)"/>
<path d="" fill="#E95827" transform="translate(0,0)"/>
<path d="" fill="#AA735D" transform="translate(0,0)"/>
<path d="" fill="#C46642" transform="translate(0,0)"/>
<path d="" fill="#EA5727" transform="translate(0,0)"/>
<path d="" fill="#C56542" transform="translate(0,0)"/>
<path d="" fill="#B07258" transform="translate(0,0)"/>
<path d="" fill="#E35526" transform="translate(0,0)"/>
<path d="" fill="#EB5523" transform="translate(0,0)"/>
<path d="" fill="#E25728" transform="translate(0,0)"/>
<path d="" fill="#E25628" transform="translate(0,0)"/>
<path d="" fill="#E85726" transform="translate(0,0)"/>
<path d="" fill="#E0582B" transform="translate(0,0)"/>
<path d="" fill="#E0562A" transform="translate(0,0)"/>
<path d="" fill="#E25729" transform="translate(0,0)"/>
<path d="" fill="#E05829" transform="translate(0,0)"/>
<path d="" fill="#E45529" transform="translate(0,0)"/>
<path d="" fill="#C36645" transform="translate(0,0)"/>
<path d="" fill="#CD613C" transform="translate(0,0)"/>
<path d="" fill="#E45729" transform="translate(0,0)"/>
<path d="" fill="#E15529" transform="translate(0,0)"/>
<path d="" fill="#E05929" transform="translate(0,0)"/>
<path d="" fill="#DD582B" transform="translate(0,0)"/>
<path d="" fill="#C46442" transform="translate(0,0)"/>
<path d="" fill="#AB745C" transform="translate(0,0)"/>
<path d="" fill="#BF6949" transform="translate(0,0)"/>
<path d="" fill="#A47661" transform="translate(0,0)"/>
<path d="" fill="#B9694B" transform="translate(0,0)"/>
<path d="" fill="#A9755E" transform="translate(0,0)"/>
<path d="" fill="#AA745D" transform="translate(0,0)"/>
<path d="" fill="#B46D52" transform="translate(0,0)"/>
<path d="" fill="#B96A4E" transform="translate(0,0)"/>
<path d="" fill="#C36542" transform="translate(0,0)"/>
<path d="" fill="#CD5F38" transform="translate(0,0)"/>
<path d="" fill="#A27764" transform="translate(0,0)"/>
<path d="" fill="#A47865" transform="translate(0,0)"/>
<path d="" fill="#A9755F" transform="translate(0,0)"/>
<path d="" fill="#B86C4F" transform="translate(0,0)"/>
<path d="" fill="#BD6747" transform="translate(0,0)"/>
<path d="" fill="#B56C4E" transform="translate(0,0)"/>
<path d="" fill="#C6643F" transform="translate(0,0)"/>
<path d="" fill="#A8745F" transform="translate(0,0)"/>
<path d="" fill="#AE7258" transform="translate(0,0)"/>
<path d="" fill="#C56440" transform="translate(0,0)"/>
<path d="" fill="#A8705C" transform="translate(0,0)"/>
<path d="" fill="#B36B51" transform="translate(0,0)"/>
<path d="" fill="#BA694B" transform="translate(0,0)"/>
<path d="" fill="#BD6948" transform="translate(0,0)"/>
<path d="" fill="#9F7866" transform="translate(0,0)"/>
<path d="" fill="#B07057" transform="translate(0,0)"/>
<path d="" fill="#C26442" transform="translate(0,0)"/>
<path d="" fill="#BE6544" transform="translate(0,0)"/>
<path d="" fill="#A57763" transform="translate(0,0)"/>
<path d="" fill="#AA725D" transform="translate(0,0)"/>
<path d="" fill="#B06F56" transform="translate(0,0)"/>
<path d="" fill="#B56A50" transform="translate(0,0)"/>
<path d="" fill="#AF7058" transform="translate(0,0)"/>
<path d="" fill="#B36B51" transform="translate(0,0)"/>
<path d="" fill="#AC6F57" transform="translate(0,0)"/>
<path d="" fill="#BA6749" transform="translate(0,0)"/>
<path d="" fill="#A7735E" transform="translate(0,0)"/>
<path d="" fill="#A07B6B" transform="translate(0,0)"/>
<path d="" fill="#A27865" transform="translate(0,0)"/>
<path d="" fill="#B16D53" transform="translate(0,0)"/>
<path d="" fill="#AC7158" transform="translate(0,0)"/>
<path d="" fill="#B16B50" transform="translate(0,0)"/>
<path d="" fill="#AC725A" transform="translate(0,0)"/>
<path d="" fill="#AE6D55" transform="translate(0,0)"/>
<path d="" fill="#A9705A" transform="translate(0,0)"/>
<path d="" fill="#B4694E" transform="translate(0,0)"/>
<path d="" fill="#A47461" transform="translate(0,0)"/>
<path d="" fill="#B56C4E" transform="translate(0,0)"/>
<path d="" fill="#AE6C54" transform="translate(0,0)"/>
<path d="" fill="#A07664" transform="translate(0,0)"/>
<path d="" fill="#A9735C" transform="translate(0,0)"/>
<path d="" fill="#997D6D" transform="translate(0,0)"/>
<path d="" fill="#9E7B6A" transform="translate(0,0)"/>
<path d="" fill="#A17968" transform="translate(0,0)"/>
<path d="" fill="#A7735E" transform="translate(0,0)"/>
<path d="" fill="#AB6E59" transform="translate(0,0)"/>
<path d="" fill="#B06C51" transform="translate(0,0)"/>
<path d="" fill="#9E7864" transform="translate(0,0)"/>
<path d="" fill="#9E7A6A" transform="translate(0,0)"/>
<path d="" fill="#A5735E" transform="translate(0,0)"/>
<path d="" fill="#A47460" transform="translate(0,0)"/>
<path d="" fill="#AA6E58" transform="translate(0,0)"/>
<path d="" fill="#AF6F53" transform="translate(0,0)"/>
<path d="" fill="#9A7B6E" transform="translate(0,0)"/>
<path d="" fill="#A57461" transform="translate(0,0)"/>
<path d="" fill="#AA6F59" transform="translate(0,0)"/>
<path d="" fill="#A27663" transform="translate(0,0)"/>
<path d="" fill="#9A7A6C" transform="translate(0,0)"/>
<path d="" fill="#987D70" transform="translate(0,0)"/>
<path d="" fill="#A37967" transform="translate(0,0)"/>
<path d="" fill="#A57560" transform="translate(0,0)"/>
<path d="" fill="#AE6E55" transform="translate(0,0)"/>
<path d="" fill="#A17461" transform="translate(0,0)"/>
<path d="" fill="#AB6E56" transform="translate(0,0)"/>
<path d="" fill="#9C7A6D" transform="translate(0,0)"/>
<path d="" fill="#9C7B6B" transform="translate(0,0)"/>
<path d="" fill="#A27662" transform="translate(0,0)"/>
<path d="" fill="#987C6F" transform="translate(0,0)"/>
<path d="" fill="#967F71" transform="translate(0,0)"/>
<path d="" fill="#997E71" transform="translate(0,0)"/>
<path d="" fill="#9D7D6E" transform="translate(0,0)"/>
<path d="" fill="#A17867" transform="translate(0,0)"/>
<path d="" fill="#A37664" transform="translate(0,0)"/>
<path d="" fill="#A3735E" transform="translate(0,0)"/>
<path d="" fill="#AA6F58" transform="translate(0,0)"/>
<path d="" fill="#A46E5B" transform="translate(0,0)"/>
<path d="" fill="#A07564" transform="translate(0,0)"/>
<path d="" fill="#A87059" transform="translate(0,0)"/>
<path d="" fill="#9C786A" transform="translate(0,0)"/>
<path d="" fill="#A47560" transform="translate(0,0)"/>
<path d="" fill="#997E6F" transform="translate(0,0)"/>
<path d="" fill="#A07666" transform="translate(0,0)"/>
<path d="" fill="#A5715E" transform="translate(0,0)"/>
<path d="" fill="#9F7462" transform="translate(0,0)"/>
<path d="" fill="#957F73" transform="translate(0,0)"/>
<path d="" fill="#9B7D70" transform="translate(0,0)"/>
<path d="" fill="#9A7E70" transform="translate(0,0)"/>
<path d="" fill="#9F7B6D" transform="translate(0,0)"/>
<path d="" fill="#9F7563" transform="translate(0,0)"/>
<path d="" fill="#9B7F74" transform="translate(0,0)"/>
<path d="" fill="#9B7E71" transform="translate(0,0)"/>
<path d="" fill="#9C7767" transform="translate(0,0)"/>
<path d="" fill="#A4715B" transform="translate(0,0)"/>
<path d="" fill="#9A7868" transform="translate(0,0)"/>
<path d="" fill="#987F72" transform="translate(0,0)"/>
<path d="" fill="#9C7A6C" transform="translate(0,0)"/>
<path d="" fill="#A17360" transform="translate(0,0)"/>
<path d="" fill="#9C7B6B" transform="translate(0,0)"/>
<path d="" fill="#9D7968" transform="translate(0,0)"/>
<path d="" fill="#9E7564" transform="translate(0,0)"/>
<path d="" fill="#938074" transform="translate(0,0)"/>
<path d="" fill="#978176" transform="translate(0,0)"/>
<path d="" fill="#988074" transform="translate(0,0)"/>
<path d="" fill="#9C7D6F" transform="translate(0,0)"/>
<path d="" fill="#9C7B6D" transform="translate(0,0)"/>
<path d="" fill="#9D7A6A" transform="translate(0,0)"/>
<path d="" fill="#9D7566" transform="translate(0,0)"/>
<path d="" fill="#9C7666" transform="translate(0,0)"/>
<path d="" fill="#998075" transform="translate(0,0)"/>
<path d="" fill="#9A796A" transform="translate(0,0)"/>
<path d="" fill="#9F7362" transform="translate(0,0)"/>
<path d="" fill="#A17460" transform="translate(0,0)"/>
<path d="" fill="#9D7363" transform="translate(0,0)"/>
<path d="" fill="#997B6B" transform="translate(0,0)"/>
<path d="" fill="#987C6E" transform="translate(0,0)"/>
<path d="" fill="#9D7564" transform="translate(0,0)"/>
<path d="" fill="#A07562" transform="translate(0,0)"/>
<path d="" fill="#9C7766" transform="translate(0,0)"/>
<path d="" fill="#A07364" transform="translate(0,0)"/>
<path d="" fill="#978075" transform="translate(0,0)"/>
<path d="" fill="#9B7B6C" transform="translate(0,0)"/>
<path d="" fill="#9D7868" transform="translate(0,0)"/>
<path d="" fill="#9E7563" transform="translate(0,0)"/>
<path d="" fill="#9B7768" transform="translate(0,0)"/>
<path d="" fill="#947F74" transform="translate(0,0)"/>
<path d="" fill="#938076" transform="translate(0,0)"/>
<path d="" fill="#938178" transform="translate(0,0)"/>
<path d="" fill="#988175" transform="translate(0,0)"/>
<path d="" fill="#9B7D6E" transform="translate(0,0)"/>
<path d="" fill="#9B7464" transform="translate(0,0)"/>
<path d="" fill="#987A6D" transform="translate(0,0)"/>
<path d="" fill="#9C7565" transform="translate(0,0)"/>
<path d="" fill="#9E7764" transform="translate(0,0)"/>
<path d="" fill="#9C7767" transform="translate(0,0)"/>
<path d="" fill="#967B6D" transform="translate(0,0)"/>
<path d="" fill="#938076" transform="translate(0,0)"/>
<path d="" fill="#958076" transform="translate(0,0)"/>
<path d="" fill="#967C71" transform="translate(0,0)"/>
<path d="" fill="#987568" transform="translate(0,0)"/>
<path d="" fill="#958277" transform="translate(0,0)"/>
<path d="" fill="#978175" transform="translate(0,0)"/>
<path d="" fill="#987F73" transform="translate(0,0)"/>
<path d="" fill="#997B6D" transform="translate(0,0)"/>
<path d="" fill="#9D7765" transform="translate(0,0)"/>
<path d="" fill="#978377" transform="translate(0,0)"/>
<path d="" fill="#997C6F" transform="translate(0,0)"/>
<path d="" fill="#9B786A" transform="translate(0,0)"/>
<path d="" fill="#97796B" transform="translate(0,0)"/>
<path d="" fill="#918379" transform="translate(0,0)"/>
<path d="" fill="#968377" transform="translate(0,0)"/>
<path d="" fill="#9A7E6F" transform="translate(0,0)"/>
<path d="" fill="#958376" transform="translate(0,0)"/>
<path d="" fill="#967D6E" transform="translate(0,0)"/>
<path d="" fill="#9C7666" transform="translate(0,0)"/>
<path d="" fill="#957D70" transform="translate(0,0)"/>
<path d="" fill="#957F74" transform="translate(0,0)"/>
<path d="" fill="#968376" transform="translate(0,0)"/>
<path d="" fill="#978076" transform="translate(0,0)"/>
<path d="" fill="#968279" transform="translate(0,0)"/>
<path d="" fill="#987E70" transform="translate(0,0)"/>
<path d="" fill="#978479" transform="translate(0,0)"/>
<path d="" fill="#998176" transform="translate(0,0)"/>
<path d="" fill="#9B7869" transform="translate(0,0)"/>
<path d="" fill="#9B786A" transform="translate(0,0)"/>
<path d="" fill="#99796A" transform="translate(0,0)"/>
<path d="" fill="#928176" transform="translate(0,0)"/>
</svg>
