<?xml version="1.0" encoding="UTF-8"?>
<svg version="1.1" xmlns="http://www.w3.org/2000/svg" width="1024" height="1024">
<path d="M0 0 C3.19531348 2.15497886 4.32828916 3.18793775 5.6875 6.8125 C6.5268323 15.27599818 4.72534302 22.82657524 2.5 30.9375 C0.05467187 40.22925364 -2.14548648 49.49761165 -3.9375 58.9375 C-5.60242205 67.63179089 -7.65389667 76.08920695 -10.109375 84.58984375 C-15.79473784 101.29915905 -15.79473784 101.29915905 -13.8125 117.875 C-13.3175 118.514375 -12.8225 119.15375 -12.3125 119.8125 C-7.48973755 119.75051077 -5.11117114 119.04122999 -1.6640625 115.6015625 C-0.40421518 114.22955071 0.8373015 112.84053965 2.0625 111.4375 C3.04911621 110.34646973 3.04911621 110.34646973 4.05566406 109.23339844 C8.3661767 104.43049834 12.4954718 99.50098653 16.515625 94.453125 C18.96792464 91.47155205 21.55826255 88.6367968 24.1875 85.8125 C29.27459942 80.34327105 33.99788317 74.62652789 38.6875 68.8125 C44.14240716 62.17589523 44.14240716 62.17589523 47.6875 59.8125 C52.76846174 59.34204058 55.60689551 59.76002903 59.6875 62.8125 C72.35293807 81.63950254 74.41772661 108.33623597 70.66235352 130.20288086 C64.33422851 161.6482938 43.11199809 180.212604 18.6875 198.8125 C21.33663648 204.24839043 24.25400451 207.6591148 29.33984375 210.9765625 C30.15316162 211.50975098 30.96647949 212.04293945 31.80444336 212.59228516 C32.42585205 212.99495605 33.04726074 213.39762695 33.6875 213.8125 C34.12916504 213.35512451 34.57083008 212.89774902 35.02587891 212.42651367 C60.39852193 186.27635366 87.14939974 170.34517008 121.6875 158.8125 C121.6875 154.8525 121.6875 150.8925 121.6875 146.8125 C120.6975 146.461875 119.7075 146.11125 118.6875 145.75 C111.61664343 142.67260291 106.01305318 137.27575356 102.53125 130.40625 C100.44947428 124.00671724 100.9308992 117.37653604 102.8125 111 C107.26464631 103.43135128 111.90751149 96.93376373 120.66015625 94.1953125 C129.28626388 92.56649064 137.10868551 94.52882225 144.6875 98.8125 C150.23037411 102.6397226 153.52104358 107.47119839 155.6875 113.8125 C156.64363791 121.67284301 155.84885408 128.97684633 151.6875 135.8125 C150.47684251 136.99982576 149.22571688 138.14730725 147.9375 139.25 C145.4615476 141.44615394 144.757643 142.3635848 144.23828125 145.6875 C144.24877337 148.42943992 144.43336372 151.08501723 144.6875 153.8125 C145.93430542 153.70639404 145.93430542 153.70639404 147.20629883 153.59814453 C157.65492814 152.79748867 168.05489685 152.65860023 178.53149414 152.68212891 C181.38107573 152.68751148 184.23050114 152.68213809 187.08007812 152.67578125 C196.33369924 152.67276143 205.48266967 152.76058785 214.6875 153.8125 C215.58339615 146.9993146 215.58339615 146.9993146 213.26953125 140.83984375 C212.03020856 139.7220751 210.77705142 138.61948743 209.51171875 137.53125 C204.56166407 132.86738692 203.41900644 126.95919682 203.125 120.375 C203.43309531 111.85765554 206.31716975 105.71637217 212.5 99.875 C219.12436089 94.64459215 225.22668799 93.17758693 233.65234375 93.390625 C238.62888643 94.08234522 242.48713881 96.1465881 246.6875 98.8125 C247.615625 99.39 248.54375 99.9675 249.5 100.5625 C255.20663656 106.43218332 257.13735939 111.72200827 257.1875 119.9375 C257.19370361 120.60620117 257.19990723 121.27490234 257.20629883 121.96386719 C257.02253357 129.23917864 254.30317493 134.79500732 249.57421875 140.21484375 C247.33347149 142.11228811 245.16470761 142.93351622 242.4375 144 C239.79630333 145.04111657 239.79630333 145.04111657 237.6875 146.8125 C236.23784393 150.78601772 235.83525552 154.60146765 235.6875 158.8125 C236.8425 159.01875 237.9975 159.225 239.1875 159.4375 C252.45047404 162.42633922 264.75738166 168.46092934 276.6875 174.8125 C277.29335938 175.12944824 277.89921875 175.44639648 278.5234375 175.77294922 C292.87508539 183.32871581 304.54400579 193.4016984 316.21484375 204.55078125 C319.5968517 207.7690349 323.1130298 210.81076128 326.6875 213.8125 C332.70246674 209.31587438 337.68827717 205.21125653 341.6875 198.8125 C340.94886719 198.26722656 340.21023438 197.72195313 339.44921875 197.16015625 C313.65261853 177.98479268 292.59425853 157.09204971 287.6875 123.8125 C287.40838858 120.32727101 287.35288731 116.87038437 287.375 113.375 C287.38063965 112.42488037 287.3862793 111.47476074 287.39208984 110.49584961 C287.67072117 93.92280306 289.59964072 73.51627733 301.8984375 61.08203125 C303.6875 59.8125 303.6875 59.8125 307.25 59.0625 C313.78585843 60.48850547 317.74457042 64.62746716 321.8125 69.6875 C322.77545651 70.8546497 323.73901908 72.02129957 324.703125 73.1875 C325.19490234 73.78691406 325.68667969 74.38632812 326.19335938 75.00390625 C328.61164973 77.93114399 331.08672178 80.80887776 333.5625 83.6875 C334.05685547 84.2640332 334.55121094 84.84056641 335.06054688 85.43457031 C339.33460552 90.41547135 343.64058371 95.36846079 347.95019531 100.31860352 C352.28310373 105.30958388 356.4966294 110.38985031 360.6640625 115.51953125 C363.21865505 118.41440736 364.8019551 119.72025574 368.6875 120.125 C371.6197872 120.07175346 371.6197872 120.07175346 373.34741211 118.61181641 C376.25089932 114.7133466 375.13657691 109.40922413 374.6875 104.8125 C373.68430521 98.9436723 372.1209596 93.19545065 370.625 87.4375 C370.21164507 85.80209321 369.7999658 84.16626205 369.38989258 82.5300293 C368.76542897 80.0390996 368.14003531 77.54845331 367.50944519 75.05906677 C364.64018423 63.72871346 362.03476059 52.33840083 359.41894531 40.94726562 C358.75916016 38.11961498 358.07089118 35.30135163 357.3671875 32.484375 C355.17895804 23.58350509 352.8536207 13.95911537 354.6875 4.8125 C357.16015625 1.95703125 357.16015625 1.95703125 359.6875 -0.1875 C360.0175 -0.5175 360.3475 -0.8475 360.6875 -1.1875 C380.65174235 -3.14477866 402.64257713 10.96904244 417.6875 22.8125 C418.55117188 23.45574219 419.41484375 24.09898437 420.3046875 24.76171875 C445.57789593 44.0194191 464.03009449 72.64270387 469.03515625 104.1875 C470.8249618 117.73716888 470.99779377 132.49651604 467.6875 145.8125 C467.40777344 147.0190625 467.12804687 148.225625 466.83984375 149.46875 C464.93375058 157.35791294 462.36712857 164.5834952 458.6875 171.8125 C458.28144531 172.69164062 457.87539063 173.57078125 457.45703125 174.4765625 C453.31480029 182.90679208 447.28250772 189.25422048 440.6875 195.8125 C439.99527344 196.50472656 439.30304687 197.19695312 438.58984375 197.91015625 C428.29703617 207.50366481 412.20617117 217.32234378 397.75 217.9375 C397.069375 217.89625 396.38875 217.855 395.6875 217.8125 C395.44773437 218.5034375 395.20796875 219.194375 394.9609375 219.90625 C393.45583199 223.34121471 391.49195265 226.28307779 389.3125 229.3125 C388.87550781 229.92053467 388.43851563 230.52856934 387.98828125 231.1550293 C383.06323561 237.86020147 377.52775558 243.90084765 371.6875 249.8125 C370.94628906 250.57820312 370.20507812 251.34390625 369.44140625 252.1328125 C362.98683992 258.36877498 355.51709034 263.08887199 347.99829102 267.94116211 C347.11455811 268.51358643 346.2308252 269.08601074 345.3203125 269.67578125 C344.52512207 270.18407471 343.72993164 270.69236816 342.91064453 271.21606445 C337.8976316 274.8158988 335.53481664 278.78910324 333 284.3125 C317.74935404 316.05579529 285.57990898 332.74408104 253.7265625 344.109375 C199.94900006 362.69350365 133.61826946 360.96795361 82.14453125 336.06640625 C56.09980314 323.03569987 32.8359498 305.00263833 22.6875 276.8125 C22.6875 275.8225 22.6875 274.8325 22.6875 273.8125 C21.99914062 273.56628906 21.31078125 273.32007813 20.6015625 273.06640625 C17.20248618 271.60380102 14.15822017 269.75547899 11.0625 267.75 C10.14271362 267.15554077 10.14271362 267.15554077 9.2043457 266.54907227 C3.35516029 262.70202329 -2.01516077 258.38710148 -7.3125 253.8125 C-8.48232422 252.84376953 -8.48232422 252.84376953 -9.67578125 251.85546875 C-19.23303259 243.75078757 -29.18914391 232.54581942 -34.5703125 221.1484375 C-37.02882268 217.85204942 -39.99782024 217.28738225 -43.8125 216.3125 C-45.27221135 215.89278407 -46.73055507 215.4682829 -48.1875 215.0390625 C-49.25291016 214.7282373 -49.25291016 214.7282373 -50.33984375 214.41113281 C-70.42815624 208.3150261 -87.26397062 193.04205633 -97.57421875 175.08984375 C-107.60107586 156.18527494 -111.72080335 136.14784725 -110.3125 114.8125 C-110.26706055 114.07306152 -110.22162109 113.33362305 -110.17480469 112.57177734 C-108.05995281 82.04286715 -93.48592095 56.29082376 -72.3125 34.8125 C-71.77955322 34.25183838 -71.24660645 33.69117676 -70.69750977 33.11352539 C-66.3952148 28.65882804 -61.79284133 24.95943396 -56.75 21.375 C-55.96133545 20.81224365 -55.1726709 20.2494873 -54.36010742 19.66967773 C-40.7246695 10.0651791 -17.43122399 -6.24892935 0 0 Z " fill="#F45737" transform="translate(332.3125,287.1875)"/>
<path d="M0 0 C1.74609375 1.21484375 1.74609375 1.21484375 3.4375 2.9375 C13.69327275 12.46618439 26.95578327 19.01552081 39 26 C35.41871033 28.97366726 31.47696173 30.81338441 27.3125 32.8125 C21.22186754 35.81131241 15.39974674 38.84476632 10 43 C9.25105469 43.56203125 8.50210938 44.1240625 7.73046875 44.703125 C-3.13989857 53.6242019 -10.83255356 66.1019444 -18.5 77.75 C-27.14204595 90.86902941 -27.14204595 90.86902941 -35 93 C-41.04765805 93.24317506 -45.28365319 91.93028901 -50 88 C-53.73445173 83.75045148 -54.41595114 79.81743847 -54.3359375 74.3125 C-51.89023586 50.19674426 -39.42928059 24.79652622 -21 9 C-14.63315146 3.95172956 -8.49993438 -0.73005571 0 0 Z " fill="#F55A39" transform="translate(361,614)"/>
<path d="M0 0 C14.8108336 3.58326619 26.15240221 16.84903857 34 29.25 C39.30190989 38.14451678 43.08645504 46.94287901 45.9609375 56.88671875 C46.73173403 59.45933451 47.63567135 61.88318625 48.625 64.375 C50.61808992 70.39880809 50.81849836 76.69243945 49.875 82.9375 C47.69102969 87.12687701 44.75029215 89.3539719 40.875 91.9375 C36.13192596 92.91401524 31.5629586 93.59800554 27 91.8125 C18.82270896 84.5972432 12.71447018 75.80672948 6.75 66.75 C-5.86255128 47.69488814 -21.43266115 35.16827962 -43.125 27.9375 C-43.125 27.2775 -43.125 26.6175 -43.125 25.9375 C-42.29645508 25.48648926 -42.29645508 25.48648926 -41.45117188 25.02636719 C-28.91131996 18.15386343 -17.36598173 10.76353937 -6.125 1.9375 C-3.125 -0.0625 -3.125 -0.0625 0 0 Z " fill="#F45838" transform="translate(667.125,614.0625)"/>
<path d="M0 0 C6.91499002 4.73884409 11.83016226 12.77761891 16.81152344 19.43994141 C19.08930117 22.42987561 21.50766563 25.31165414 23.91796875 28.1953125 C24.45357422 29.08863281 24.45357422 29.08863281 25 30 C24 33 24 33 22.34863281 34.09985352 C21.64061523 34.43944092 20.93259766 34.77902832 20.203125 35.12890625 C19.02194092 35.71345581 19.02194092 35.71345581 17.81689453 36.30981445 C16.96981934 36.72320068 16.12274414 37.13658691 15.25 37.5625 C-3.15407494 46.93275229 -17.35094901 60.28080106 -29.3359375 77.00024414 C-33.28038961 82.41678535 -37.90455151 87.95227576 -44 91 C-48.65048294 91.56735892 -52.09730577 91.4598631 -56.3125 89.3125 C-60.24246545 85.93090182 -63.77190015 82.60632128 -64.23828125 77.27734375 C-64.40598749 69.73056281 -63.69103557 64.5541753 -60 58 C-59.57589844 57.16210938 -59.15179688 56.32421875 -58.71484375 55.4609375 C-52.67477893 43.78460049 -45.09521397 33.47104926 -36 24 C-34.75283203 22.65808594 -34.75283203 22.65808594 -33.48046875 21.2890625 C-11.33547497 -1.86104813 -11.33547497 -1.86104813 0 0 Z " fill="#F55938" transform="translate(317,564)"/>
<path d="M0 0 C18.48251833 3.6810047 37.13336662 26.3058473 47.390625 41.10546875 C53.63800397 50.54589937 61.20950264 62.00725462 61.25 73.5625 C61.26675781 74.6659375 61.28351563 75.769375 61.30078125 76.90625 C60.74938604 81.69686648 58.65919517 84.82739033 54.9375 87.8125 C50.53221109 91.11646669 47.36943913 91.51516159 41.9375 91.0625 C35.91722709 88.27089804 32.55896394 84.71259287 28.5625 79.5 C27.71788208 78.4325354 27.71788208 78.4325354 26.85620117 77.34350586 C25.20626354 75.25772677 23.57006975 73.1618867 21.9375 71.0625 C9.27035121 54.83227201 -5.54980887 43.77577444 -24.0625 35.0625 C-25.3979978 34.40017995 -26.73243452 33.73566272 -28.0625 33.0625 C-26.51358562 28.163825 -23.65607743 24.76916688 -20.4375 20.875 C-19.35278899 19.5430303 -18.26815379 18.21099887 -17.18359375 16.87890625 C-16.65233887 16.23066895 -16.12108398 15.58243164 -15.57373047 14.91455078 C-12.90591496 11.64507608 -10.30104383 8.32543284 -7.68359375 5.015625 C-3.58128763 0.0730875 -3.58128763 0.0730875 0 0 Z " fill="#F55938" transform="translate(710.0625,563.9375)"/>
<path d="M0 0 C0 3 0 3 -1.74414062 5.0847168 C-2.54013672 5.86500244 -3.33613281 6.64528809 -4.15625 7.44921875 C-5.01347656 8.29677734 -5.87070312 9.14433594 -6.75390625 10.01757812 C-7.66011719 10.89865234 -8.56632812 11.77972656 -9.5 12.6875 C-10.40621094 13.58017578 -11.31242187 14.47285156 -12.24609375 15.39257812 C-14.49085168 17.60189251 -16.74229998 19.80392533 -19 22 C-19.66 21.67 -20.32 21.34 -21 21 C-4.89320388 3.26213592 -4.89320388 3.26213592 0 0 Z " fill="#DE5038" transform="translate(270,313)"/>
<path d="M0 0 C0.33 0.66 0.66 1.32 1 2 C0.319375 3.60875 0.319375 3.60875 -0.375 5.25 C-2.80466864 11.24096377 -2.73990038 17.6141058 -3 24 C-3.66 23.67 -4.32 23.34 -5 23 C-5.63690134 13.97015433 -4.8762059 7.71485433 0 0 Z " fill="#DE583C" transform="translate(541,391)"/>
<path d="M0 0 C-1.25922263 3.77766788 -3.12450332 5.25230318 -6 8 C-7.10676164 9.10156558 -8.21094673 10.2057261 -9.3125 11.3125 C-10.199375 12.199375 -11.08625 13.08625 -12 14 C-12.66 13.67 -13.32 13.34 -14 13 C-2.80645161 0 -2.80645161 0 0 0 Z " fill="#DA4F38" transform="translate(342,623)"/>
<path d="M0 0 C0.66 0.33 1.32 0.66 2 1 C1.09507812 1.77923828 1.09507812 1.77923828 0.171875 2.57421875 C-3.92591117 6.14986765 -7.80685744 9.55736688 -11 14 C-11.66 13.67 -12.32 13.34 -13 13 C-8.96476648 8.18876004 -4.95532767 3.86757281 0 0 Z " fill="#2D0C0D" transform="translate(372,655)"/>
<path d="M0 0 C2.125 0.40234375 2.125 0.40234375 4 1 C2.75482035 2.13033298 1.50363348 3.25405036 0.25 4.375 C-0.44609375 5.00148438 -1.1421875 5.62796875 -1.859375 6.2734375 C-3.84508688 7.87505183 -5.67954093 8.96520068 -8 10 C-3.25423729 2.54237288 -3.25423729 2.54237288 0 0 Z " fill="#DF4F38" transform="translate(707,564)"/>
<path d="M0 0 C0.33 0 0.66 0 1 0 C1.2757817 2.43707088 1.52131492 4.87095049 1.75 7.3125 C1.83121094 8.00279297 1.91242187 8.69308594 1.99609375 9.40429688 C2.171875 11.42578125 2.171875 11.42578125 2 15 C0.68 15.99 -0.64 16.98 -2 18 C-1.34 12.06 -0.68 6.12 0 0 Z " fill="#521B1A" transform="translate(589,402)"/>
<path d="M0 0 C0 3 0 3 -1.3125 4.60546875 C-1.869375 5.12753906 -2.42625 5.64960938 -3 6.1875 C-3.556875 6.71730469 -4.11375 7.24710937 -4.6875 7.79296875 C-5.120625 8.19128906 -5.55375 8.58960938 -6 9 C-6.66 8.67 -7.32 8.34 -8 8 C-3.375 2.25 -3.375 2.25 0 0 Z " fill="#D94F38" transform="translate(446,385)"/>
<path d="M0 0 C1.8871875 0.061875 1.8871875 0.061875 3.8125 0.125 C3.8125 0.455 3.8125 0.785 3.8125 1.125 C2.20375 1.24875 2.20375 1.24875 0.5625 1.375 C-3.52250175 2.19200035 -4.53641677 3.0811637 -7.1875 6.125 C-7.8475 6.125 -8.5075 6.125 -9.1875 6.125 C-7.20938974 1.56013016 -5.01716504 -0.16449721 0 0 Z " fill="#D24E3B" transform="translate(697.1875,285.875)"/>
<path d="M0 0 C0 3 0 3 -2 5.1875 C-2.66 5.785625 -3.32 6.38375 -4 7 C-4.99 6.67 -5.98 6.34 -7 6 C-4.69 4.02 -2.38 2.04 0 0 Z " fill="#1D080B" transform="translate(646,597)"/>
<path d="M0 0 C0 3 0 3 -2 5.1875 C-2.66 5.785625 -3.32 6.38375 -4 7 C-4.99 6.67 -5.98 6.34 -7 6 C-4.69 4.02 -2.38 2.04 0 0 Z " fill="#D7503B" transform="translate(387,481)"/>
<path d="M0 0 C0.66 0 1.32 0 2 0 C0.70700306 2.88437779 -0.65941363 4.87219421 -3 7 C-3.66 6.67 -4.32 6.34 -5 6 C-3.38405168 3.95880212 -1.7143618 1.95927063 0 0 Z " fill="#D8503A" transform="translate(377,349)"/>
</svg>
